<svg xmlns="http://www.w3.org/2000/svg" xmlns:svg="http://www.w3.org/2000/svg" xmlns:xlink="http://www.w3.org/1999/xlink" version="1.0" height="1150pt" width="1990pt" viewBox="364.99999999999994 -243 1998 1156" ><defs><style type="text/css">
            @font-face {
                font-family: 'noto_regular';
                src: url('https://app.creately.com/diagram/assets/fonts/noto/noto-regular.woff') format('woff'),
                     url('https://app.creately.com/diagram/assets/fonts/noto/noto-regular.woff2') format('woff2');
                font-weight: normal;
                font-style: normal;
            }
        p {
            margin: 0;
        }
        </style></defs><defs><style>
            span{ display: inline-block; }
        </style></defs><g id="RxYSVK7ic7m"><g transform="translate(530.0000000000002 -59.99999999999977)"><rect x="0" y="0" width="179.99999999999991" height="59.99999999999981" fill="rgb(255,255,255)" stroke="#24afaf" stroke-width="2" stroke-linecap="round" stroke-linejoin="round"/></g><g transform="translate(587.3550000000002, -39.19999999999987) rotate(0, 32.645, 9.2)" width="65.29" height="18.4"><text text-decoration="none" x="2.145000000000003" fill="#656565" font-size="10pt" font-family="noto_regular"  y="17">Passenger</text><text text-decoration="none" x="63.145" fill="#4b4b4b" font-size="10pt" font-family="noto_regular"  y="17"></text></g></g><g id="wp6Oczhv2YO"><g transform="translate(720 -190.00000000000006)"><ellipse cx="49.999999995086384" cy="29.99999999999999" rx="49.999999995086384" ry="29.99999999999999" fill="white" stroke="#7e7e7e" stroke-width="2" stroke-linecap="round" stroke-linejoin="round"/></g><g transform="translate(769.9949999950865, -168.80500000000006) rotate(0, 0.005, 8.805)" width="0.01" height="17.61"><text text-decoration="none" x="0.005" fill="#4b4b4b" font-size="10pt" font-family="noto_regular"  y="17"></text></g></g><g id="5BdnOQzCXuI"><g transform="translate(710 -180.00000000000006)"><rect x="0" y="0" width="120" height="40" fill="rgba(255,255,255,0.01)" stroke="rgba(255,255,255,0.01)"/></g><g transform="translate(751.205, -170.00000000000006) rotate(0, 18.795, 0)" width="37.59" height="18.4"><text text-decoration="none" x="0.7950000000000017" fill="#4b4b4b" font-size="10pt" font-family="noto_regular"  y="17">Name</text><text text-decoration="none" x="36.795" fill="#4b4b4b" font-size="10pt" font-family="noto_regular"  y="17"></text></g></g><g id="deYricyuS0D"><g transform="translate(530.0000000000002 -200.00000000000009)"><ellipse cx="49.999999995086384" cy="29.99999999999999" rx="49.999999995086384" ry="29.99999999999999" fill="white" stroke="#7e7e7e" stroke-width="2" stroke-linecap="round" stroke-linejoin="round"/></g><g transform="translate(579.9949999950867, -178.80500000000012) rotate(0, 0.005, 8.805)" width="0.01" height="17.61"><text text-decoration="none" x="0.005" fill="#4b4b4b" font-size="10pt" font-family="noto_regular"  y="17"></text></g></g><g id="fkhttgplwnc"><g transform="translate(520.0000000000002 -190.00000000000006)"><rect x="0" y="0" width="120" height="40" fill="rgba(255,255,255,0.01)" stroke="rgba(255,255,255,0.01)"/></g><g transform="translate(565.1900000000003, -180.00000000000006) rotate(0, 14.81, 0)" width="29.62" height="18.4"><text text-decoration="none" x="0.8100000000000005" fill="#4b4b4b" font-size="10pt" font-family="noto_regular"  y="17">Card</text><text text-decoration="none" x="28.810000000000002" fill="#4b4b4b" font-size="10pt" font-family="noto_regular"  y="17"></text></g></g><g id="ulGfeQcQP1j"><g transform="translate(390.0000000000003 -150.00000000000006)"><ellipse cx="54.99999999508633" cy="29.99999999999999" rx="54.99999999508633" ry="29.99999999999999" fill="white" stroke="#7e7e7e" stroke-width="2" stroke-linecap="round" stroke-linejoin="round"/></g><g transform="translate(444.9949999950866, -128.80500000000006) rotate(0, 0.005, 8.805)" width="0.01" height="17.61"><text text-decoration="none" x="0.005" fill="#4b4b4b" font-size="10pt" font-family="noto_regular"  y="17"></text></g></g><g id="4sI0PJdlj8u"><g transform="translate(390.00000000000006 -140)"><rect x="0" y="0" width="109.99999999999982" height="40" fill="rgba(255,255,255,0.01)" stroke="rgba(255,255,255,0.01)"/></g><g transform="translate(403.5, -130) rotate(0, 41.5, 0)" width="83" height="18.4"><text text-decoration="underline" x="3" fill="#4b4b4b" font-size="10pt" font-family="noto_regular"  y="17">Passenger&#160;</text><text text-decoration="underline" x="67" fill="#4b4b4b" font-size="10pt" font-family="noto_regular"  y="17">ID</text><text text-decoration="none" x="80" fill="#4b4b4b" font-size="10pt" font-family="noto_regular"  y="17"></text></g></g><g id="JO0p70DeV3n"><g transform="translate(369.99999999999994 -39.99999999999994)"><ellipse cx="49.999999995086384" cy="29.99999999999999" rx="49.999999995086384" ry="29.99999999999999" fill="white" stroke="#7e7e7e" stroke-width="2" stroke-linecap="round" stroke-linejoin="round"/></g><g transform="translate(419.99499999508635, -18.804999999999954) rotate(0, 0.005, 8.805)" width="0.01" height="17.61"><text text-decoration="none" x="0.005" fill="#4b4b4b" font-size="10pt" font-family="noto_regular"  y="17"></text></g></g><g id="TffMbtsahgV"><g transform="translate(370 -29.999999999999943)"><rect x="0" y="0" width="89.99999999999991" height="40" fill="rgba(255,255,255,0.01)" stroke="rgba(255,255,255,0.01)"/></g><g transform="translate(389.63999999999993, -19.999999999999943) rotate(0, 25.36, 0)" width="50.72" height="18.4"><text text-decoration="none" x="1.3599999999999994" fill="#4b4b4b" font-size="10pt" font-family="noto_regular"  y="17">Address</text><text text-decoration="none" x="49.36" fill="#4b4b4b" font-size="10pt" font-family="noto_regular"  y="17"></text></g></g><g id="2CC2OeK1KFl"><g transform="translate(419.99999999999994 80)"><ellipse cx="49.999999995086384" cy="29.99999999999999" rx="49.999999995086384" ry="29.99999999999999" fill="white" stroke="#7e7e7e" stroke-width="2" stroke-linecap="round" stroke-linejoin="round"/></g><g transform="translate(469.99499999508635, 101.195) rotate(0, 0.005, 8.805)" width="0.01" height="17.61"><text text-decoration="none" x="0.005" fill="#4b4b4b" font-size="10pt" font-family="noto_regular"  y="17"></text></g></g><g id="fWJ6TMciEMA"><g transform="translate(410 90)"><rect x="0" y="0" width="120" height="40" fill="rgba(255,255,255,0.01)" stroke="rgba(255,255,255,0.01)"/></g><g transform="translate(457.88, 100) rotate(0, 12.12, 0)" width="24.24" height="18.4"><text text-decoration="none" x="1.1199999999999992" fill="#4b4b4b" font-size="10pt" font-family="noto_regular"  y="17">Age</text><text text-decoration="none" x="23.119999999999997" fill="#4b4b4b" font-size="10pt" font-family="noto_regular"  y="17"></text></g></g><g id="c6lvhzfWFmY"><g transform="translate(560.0000000000002 140)"><ellipse cx="49.999999995086384" cy="29.99999999999999" rx="49.999999995086384" ry="29.99999999999999" fill="white" stroke="#7e7e7e" stroke-width="2" stroke-linecap="round" stroke-linejoin="round"/></g><g transform="translate(609.9949999950867, 161.195) rotate(0, 0.005, 8.805)" width="0.01" height="17.61"><text text-decoration="none" x="0.005" fill="#4b4b4b" font-size="10pt" font-family="noto_regular"  y="17"></text></g></g><g id="yzEXc6sAxSn"><g transform="translate(550.0000000000002 149.99999999999977)"><rect x="0" y="0" width="120" height="40" fill="rgba(255,255,255,0.01)" stroke="rgba(255,255,255,0.01)"/></g><g transform="translate(586.6550000000002, 159.99999999999977) rotate(0, 23.345, 0)" width="46.69" height="18.4"><text text-decoration="none" x="1.3449999999999989" fill="#4b4b4b" font-size="10pt" font-family="noto_regular"  y="17">Gender</text><text text-decoration="none" x="45.345" fill="#4b4b4b" font-size="10pt" font-family="noto_regular"  y="17"></text></g></g><g id="bcEEcObLkAH"><g transform="translate(680.0000000000002 90)"><ellipse cx="49.999999995086384" cy="29.99999999999999" rx="49.999999995086384" ry="29.99999999999999" fill="white" stroke="#7e7e7e" stroke-width="2" stroke-linecap="round" stroke-linejoin="round"/></g><g transform="translate(729.9949999950867, 111.195) rotate(0, 0.005, 8.805)" width="0.01" height="17.61"><text text-decoration="none" x="0.005" fill="#4b4b4b" font-size="10pt" font-family="noto_regular"  y="17"></text></g></g><g id="CYh2Ox44tLN"><g transform="translate(670 100)"><rect x="0" y="0" width="120" height="40" fill="rgba(255,255,255,0.01)" stroke="rgba(255,255,255,0.01)"/></g><g transform="translate(705.885, 110) rotate(0, 24.115, 0)" width="48.23" height="18.4"><text text-decoration="none" x="0.6149999999999984" fill="#4b4b4b" font-size="10pt" font-family="noto_regular"  y="17">Contact</text><text text-decoration="none" x="47.614999999999995" fill="#4b4b4b" font-size="10pt" font-family="noto_regular"  y="17"></text></g></g><g id="d0xhseBd13G"><g><path d="M 665,-60 L 664.9844044731852,-94.99999999999993 L 717,-95 L 769.9999999950865,-94.99999999999993 L 770,-130" fill="none" stroke="#7E7E7E" stroke-width="2" stroke-linecap="round" stroke-linejoin="round"/></g></g><g id="1vZxp6E1dXT"><g><path d="M 580,-140 L 579.9999999950867,-99.99999999999994 L 600,-100 L 620.0000000000002,-99.99999999999994 L 620,-60" fill="none" stroke="#7E7E7E" stroke-width="2" stroke-linecap="round" stroke-linejoin="round"/></g></g><g id="V3rzBUGRKTn"><g><path d="M 500,-120 L 564.1297547523968,-120 L 564,-60" fill="none" stroke="#7E7E7E" stroke-width="2" stroke-linecap="round" stroke-linejoin="round"/></g></g><g id="gkEbyStcG8Y"><g><path d="M 470,-10 L 499.99999999508645,-9.999999999999954 L 500,-20 L 499.99999999508645,-29.99999999999987 L 530,-30" fill="none" stroke="#7E7E7E" stroke-width="2" stroke-linecap="round" stroke-linejoin="round"/></g></g><g id="xBZy60Dz66k"><g><path d="M 470,80 L 470,40 L 512,40 L 553,40 L 553,0" fill="none" stroke="#7E7E7E" stroke-width="2" stroke-linecap="round" stroke-linejoin="round"/></g></g><g id="iqdgdwGQUeG"><g><path d="M 620,0 L 620,70 L 615,70 L 610,70 L 610,140" fill="none" stroke="#7E7E7E" stroke-width="2" stroke-linecap="round" stroke-linejoin="round"/></g></g><g id="eXvqmWMCbq3"><g><path d="M 729,88 L 729,88" fill="none" stroke="#7E7E7E" stroke-width="2" stroke-linecap="round" stroke-linejoin="round"/></g></g><g id="BYU6Oukj42W"><g><path d="M 726,91 L 726,91" fill="none" stroke="#7E7E7E" stroke-width="2" stroke-linecap="round" stroke-linejoin="round"/></g></g><g id="t0hnetOOHIs"><g><path d="M 730,90 L 729.9999999950867,-29.99999999999987 L 710,-30" fill="none" stroke="#7E7E7E" stroke-width="2" stroke-linecap="round" stroke-linejoin="round"/></g></g><g id="a8pe1QDwlsQ"><g transform="translate(930.0000000000003 280)"><path d="M 74.99999999999987,0 L 0,50.000000000000036 L 74.99999999999987,100.00000000000007 L 149.99999999999974,50.000000000000036 L 74.99999999999987,0 Z" fill="rgb(255,255,255)" stroke="#4b4b4b" stroke-width="2" stroke-linecap="round" stroke-linejoin="round"/></g><g transform="translate(989.9550000000003, 320.8) rotate(0, 15.045, 9.2)" width="30.09" height="18.4"><text text-decoration="none" x="0.5449999999999999" fill="#656565" font-size="10pt" font-family="noto_regular"  y="17">Buys</text><text text-decoration="none" x="29.545" fill="#4b4b4b" font-size="10pt" font-family="noto_regular"  y="17"></text></g></g><g id="BhFnVYVEoyB"><g><path d="M 708,-7 L 1005,-7 L 1005,280" fill="none" stroke="#7E7E7E" stroke-width="2" stroke-linecap="round" stroke-linejoin="round"/></g></g><g id="Th9bfc9ZU2S"><g transform="translate(620 459.9999999999999)"><rect x="0" y="0" width="120" height="60" fill="rgb(255,255,255)" stroke="#24afaf" stroke-width="2" stroke-linecap="round" stroke-linejoin="round"/></g><g transform="translate(662.24, 480.7999999999999) rotate(0, 17.76, 9.2)" width="35.52" height="18.4"><text text-decoration="none" x="0.26000000000000156" fill="#656565" font-size="10pt" font-family="noto_regular"  y="17">Entity</text><text text-decoration="none" x="35.260000000000005" fill="#4b4b4b" font-size="10pt" font-family="noto_regular"  y="17"></text></g></g><g id="Mf38yzVmCBh"><g transform="translate(400 540.0000000000001)"><ellipse cx="49.999999995086384" cy="29.99999999999999" rx="49.999999995086384" ry="29.99999999999999" fill="white" stroke="#7e7e7e" stroke-width="2" stroke-linecap="round" stroke-linejoin="round"/></g><g transform="translate(449.9949999950864, 561.1950000000002) rotate(0, 0.005, 8.805)" width="0.01" height="17.61"><text text-decoration="none" x="0.005" fill="#4b4b4b" font-size="10pt" font-family="noto_regular"  y="17"></text></g></g><g id="IL8c1dhFf6s"><g transform="translate(389.99999999999994 550.0000000000001)"><rect x="0" y="0" width="120" height="40" fill="rgba(255,255,255,0.01)" stroke="rgba(255,255,255,0.01)"/></g><g transform="translate(403.88999999999993, 560.0000000000001) rotate(0, 46.11, 0)" width="92.22" height="18.4"><text text-decoration="underline" x="2.1099999999999994" fill="#4b4b4b" font-size="10pt" font-family="noto_regular"  y="17">Ticket&#160;</text><text text-decoration="underline" x="40.11" fill="#4b4b4b" font-size="10pt" font-family="noto_regular"  y="17">Number</text><text text-decoration="none" x="90.11" fill="#4b4b4b" font-size="10pt" font-family="noto_regular"  y="17"></text></g></g><g id="B15qORlKZz5"><g transform="translate(530.0000000000001 660)"><ellipse cx="49.999999995086384" cy="29.99999999999999" rx="49.999999995086384" ry="29.99999999999999" fill="white" stroke="#7e7e7e" stroke-width="2" stroke-linecap="round" stroke-linejoin="round"/></g><g transform="translate(579.9949999950865, 681.195) rotate(0, 0.005, 8.805)" width="0.01" height="17.61"><text text-decoration="none" x="0.005" fill="#4b4b4b" font-size="10pt" font-family="noto_regular"  y="17"></text></g></g><g id="neLZ2MZhbtC"><g transform="translate(520.0000000000001 670)"><rect x="0" y="0" width="120" height="40" fill="rgba(255,255,255,0.01)" stroke="rgba(255,255,255,0.01)"/></g><g transform="translate(544.4550000000002, 680) rotate(0, 35.545, 0)" width="71.09" height="18.4"><text text-decoration="none" x="2.0450000000000017" fill="#4b4b4b" font-size="10pt" font-family="noto_regular"  y="17">Ticket&#160;</text><text text-decoration="none" x="40.045" fill="#4b4b4b" font-size="10pt" font-family="noto_regular"  y="17">Price</text><text text-decoration="none" x="69.045" fill="#4b4b4b" font-size="10pt" font-family="noto_regular"  y="17"></text></g></g><g id="sp4VUqaSl8J"><g transform="translate(720.0000000000001 689.9999999999999)"><ellipse cx="49.999999995086384" cy="29.99999999999999" rx="49.999999995086384" ry="29.99999999999999" fill="white" stroke="#7e7e7e" stroke-width="2" stroke-linecap="round" stroke-linejoin="round"/></g><g transform="translate(769.9949999950865, 711.1949999999999) rotate(0, 0.005, 8.805)" width="0.01" height="17.61"><text text-decoration="none" x="0.005" fill="#4b4b4b" font-size="10pt" font-family="noto_regular"  y="17"></text></g></g><g id="ayVhiDVuapx"><g transform="translate(709.9999999999999 699.9999999999999)"><rect x="0" y="0" width="120" height="40" fill="rgba(255,255,255,0.01)" stroke="rgba(255,255,255,0.01)"/></g><g transform="translate(738.0449999999998, 709.9999999999999) rotate(0, 31.955, 0)" width="63.91" height="18.4"><text text-decoration="none" x="1.9549999999999983" fill="#4b4b4b" font-size="10pt" font-family="noto_regular"  y="17">Final&#160;</text><text text-decoration="none" x="32.955" fill="#4b4b4b" font-size="10pt" font-family="noto_regular"  y="17">Price</text><text text-decoration="none" x="61.955" fill="#4b4b4b" font-size="10pt" font-family="noto_regular"  y="17"></text></g></g><g id="io9ik3UK82S"><g><path d="M 500,570 L 559.9999999950865,570.0000000000001 L 560,530 L 559.9999999950865,489.9999999999999 L 620,490" fill="none" stroke="#7E7E7E" stroke-width="2" stroke-linecap="round" stroke-linejoin="round"/></g></g><g id="qSLb45xK6RT"><g><path d="M 580,660 L 579.9999999950865,590 L 630,590 L 680,590 L 680,520" fill="none" stroke="#7E7E7E" stroke-width="2" stroke-linecap="round" stroke-linejoin="round"/></g></g><g id="R8gbufojOAS"><g><path d="M 770,690 L 769.9999999950865,604.9999999999999 L 725,605 L 680,604.9999999999999 L 680,520" fill="none" stroke="#7E7E7E" stroke-width="2" stroke-linecap="round" stroke-linejoin="round"/></g></g><g id="32IAXBbLh9p"><g><path d="M 740,490 L 1005.0000000000002,489.9999999999999 L 1005,380" fill="none" stroke="#7E7E7E" stroke-width="2" stroke-linecap="round" stroke-linejoin="round"/></g></g><g id="cTwthnFK0Yg"><g transform="translate(1400 290.0000000000002)"><path d="M 74.99999999999987,0 L 0,50.000000000000036 L 74.99999999999987,100.00000000000007 L 149.99999999999974,50.000000000000036 L 74.99999999999987,0 Z" fill="rgb(255,255,255)" stroke="#4b4b4b" stroke-width="2" stroke-linecap="round" stroke-linejoin="round"/></g><g transform="translate(1452.85, 330.80000000000024) rotate(0, 22.15, 9.2)" width="44.3" height="18.4"><text text-decoration="none" x="1.1499999999999986" fill="#656565" font-size="10pt" font-family="noto_regular"  y="17">Boards</text><text text-decoration="none" x="43.15" fill="#4b4b4b" font-size="10pt" font-family="noto_regular"  y="17"></text></g></g><g id="4aidudpluM7"><g><path d="M 707,-57 L 1172,-57 L 1172,142 L 1172,340.0000000000002 L 1400,340" fill="none" stroke="#7E7E7E" stroke-width="2" stroke-linecap="round" stroke-linejoin="round"/></g></g><g id="0ILcx3Cvgfx"><g transform="translate(1900 -29.999999999999943)"><rect x="0" y="0" width="179.9999999999997" height="99.99999999999991" fill="rgb(255,255,255)" stroke="#24afaf" stroke-width="2" stroke-linecap="round" stroke-linejoin="round"/></g><g transform="translate(1960.3599999999997, 10.800000000000015) rotate(0, 29.64, 9.2)" width="59.28" height="18.4"><text text-decoration="none" x="1.1400000000000006" fill="#656565" font-size="10pt" font-family="noto_regular"  y="17">train_info</text><text text-decoration="none" x="58.14" fill="#4b4b4b" font-size="10pt" font-family="noto_regular"  y="17"></text></g></g><g id="SaLL1IU42xq"><g transform="translate(2220.0000000000014 -130.00000000000006)"><ellipse cx="49.999999995086384" cy="29.99999999999999" rx="49.999999995086384" ry="29.99999999999999" fill="white" stroke="#7e7e7e" stroke-width="2" stroke-linecap="round" stroke-linejoin="round"/></g><g transform="translate(2269.9949999950877, -108.80500000000006) rotate(0, 0.005, 8.805)" width="0.01" height="17.61"><text text-decoration="none" x="0.005" fill="#4b4b4b" font-size="10pt" font-family="noto_regular"  y="17"></text></g></g><g id="1Xsy8zUIcoq"><g transform="translate(2219.9999999999995 -119.99999999999994)"><rect x="0" y="0" width="100.00000000000105" height="40" fill="rgba(255,255,255,0.01)" stroke="rgba(255,255,255,0.01)"/></g><g transform="translate(2232.52, -109.99999999999994) rotate(0, 37.48, 0)" width="74.96" height="18.4"><text text-decoration="none" x="2.479999999999997" fill="#4b4b4b" font-size="10pt" font-family="noto_regular"  y="17">Arrival&#160;</text><text text-decoration="none" x="43.48" fill="#4b4b4b" font-size="10pt" font-family="noto_regular"  y="17">Time</text><text text-decoration="none" x="72.47999999999999" fill="#4b4b4b" font-size="10pt" font-family="noto_regular"  y="17"></text></g></g><g id="cRmMCLfVijC"><g transform="translate(2070 -239.99999999999994)"><ellipse cx="49.999999995086384" cy="29.99999999999999" rx="49.999999995086384" ry="29.99999999999999" fill="white" stroke="#7e7e7e" stroke-width="2" stroke-linecap="round" stroke-linejoin="round"/></g><g transform="translate(2119.9949999950863, -218.80499999999995) rotate(0, 0.005, 8.805)" width="0.01" height="17.61"><text text-decoration="none" x="0.005" fill="#4b4b4b" font-size="10pt" font-family="noto_regular"  y="17"></text></g></g><g id="Lh9tBrfgqlz"><g transform="translate(2060 -229.99999999999983)"><rect x="0" y="0" width="120" height="40" fill="rgba(255,255,255,0.01)" stroke="rgba(255,255,255,0.01)"/></g><g transform="translate(2078.68, -219.99999999999983) rotate(0, 41.32, 0)" width="82.64" height="18.4"><text text-decoration="none" x="1.8200000000000003" fill="#4b4b4b" font-size="10pt" font-family="noto_regular"  y="17">Seat&#160;</text><text text-decoration="none" x="30.82" fill="#4b4b4b" font-size="10pt" font-family="noto_regular"  y="17">Number</text><text text-decoration="none" x="80.82" fill="#4b4b4b" font-size="10pt" font-family="noto_regular"  y="17"></text></g></g><g id="1GjRTuvEEMF"><g transform="translate(1919.9999999999998 -240)"><ellipse cx="49.999999995086384" cy="29.99999999999999" rx="49.999999995086384" ry="29.99999999999999" fill="white" stroke="#7e7e7e" stroke-width="2" stroke-linecap="round" stroke-linejoin="round"/></g><g transform="translate(1969.994999995086, -218.805) rotate(0, 0.005, 8.805)" width="0.01" height="17.61"><text text-decoration="none" x="0.005" fill="#4b4b4b" font-size="10pt" font-family="noto_regular"  y="17"></text></g></g><g id="Cyb0fp2qx6h"><g transform="translate(1910.0000000000007 -229.9999999999999)"><rect x="0" y="0" width="120" height="40" fill="rgba(255,255,255,0.01)" stroke="rgba(255,255,255,0.01)"/></g><g transform="translate(1923.3700000000006, -219.9999999999999) rotate(0, 46.63, 0)" width="93.26" height="18.4"><text text-decoration="none" x="2.6300000000000026" fill="#4b4b4b" font-size="10pt" font-family="noto_regular"  y="17">Available&#160;</text><text text-decoration="none" x="58.63" fill="#4b4b4b" font-size="10pt" font-family="noto_regular"  y="17">Seats</text><text text-decoration="none" x="90.63" fill="#4b4b4b" font-size="10pt" font-family="noto_regular"  y="17"></text></g></g><g id="WYK77QM4eS1"><g transform="translate(1800 -169.99999999999994)"><ellipse cx="49.999999995086384" cy="29.99999999999999" rx="49.999999995086384" ry="29.99999999999999" fill="white" stroke="#7e7e7e" stroke-width="2" stroke-linecap="round" stroke-linejoin="round"/></g><g transform="translate(1849.9949999950863, -148.80499999999995) rotate(0, 0.005, 8.805)" width="0.01" height="17.61"><text text-decoration="none" x="0.005" fill="#4b4b4b" font-size="10pt" font-family="noto_regular"  y="17"></text></g></g><g id="dyqwlxG5dWU"><g transform="translate(1789.9999999999998 -160.00000000000006)"><rect x="0" y="0" width="100.00000000000026" height="40" fill="rgba(255,255,255,0.01)" stroke="rgba(255,255,255,0.01)"/></g><g transform="translate(1806.38, -150.00000000000006) rotate(0, 33.62, 0)" width="67.24" height="18.4"><text text-decoration="none" x="1.6199999999999974" fill="#4b4b4b" font-size="10pt" font-family="noto_regular"  y="17">Total&#160;</text><text text-decoration="none" x="34.62" fill="#4b4b4b" font-size="10pt" font-family="noto_regular"  y="17">seats</text><text text-decoration="none" x="65.62" fill="#4b4b4b" font-size="10pt" font-family="noto_regular"  y="17"></text></g></g><g id="0dL2jeo18yT"><g transform="translate(1630 -79.99999999999994)"><ellipse cx="49.999999995086384" cy="29.99999999999999" rx="49.999999995086384" ry="29.99999999999999" fill="white" stroke="#7e7e7e" stroke-width="2" stroke-linecap="round" stroke-linejoin="round"/></g><g transform="translate(1679.9949999950863, -58.80499999999996) rotate(0, 0.005, 8.805)" width="0.01" height="17.61"><text text-decoration="none" x="0.005" fill="#4b4b4b" font-size="10pt" font-family="noto_regular"  y="17"></text></g></g><g id="7MhjhkT9aEn"><g transform="translate(1619.9999999999998 -79.99999999999994)"><rect x="0" y="0" width="110.0000000000001" height="60.00000000000001" fill="rgba(255,255,255,0.01)" stroke="rgba(255,255,255,0.01)"/></g><g transform="translate(1642.7499999999998, -69.99999999999994) rotate(0, 32.25, 0)" width="64.5" height="36.8"><text text-decoration="none" x="1.75" fill="#4b4b4b" font-size="10pt" font-family="noto_regular"  y="14">Departure&#160;</text><text text-decoration="none" x="15.75" fill="#4b4b4b" font-size="10pt" font-family="noto_regular"  y="36">dates</text><text text-decoration="none" x="48.75" fill="#4b4b4b" font-size="10pt" font-family="noto_regular"  y="36"></text></g></g><g id="WSS7ta1vqGh"><g transform="translate(1960.0000000000005 250)"><ellipse cx="49.999999995086384" cy="29.99999999999999" rx="49.999999995086384" ry="29.99999999999999" fill="white" stroke="#7e7e7e" stroke-width="2" stroke-linecap="round" stroke-linejoin="round"/></g><g transform="translate(2009.9949999950868, 271.195) rotate(0, 0.005, 8.805)" width="0.01" height="17.61"><text text-decoration="none" x="0.005" fill="#4b4b4b" font-size="10pt" font-family="noto_regular"  y="17"></text></g></g><g id="zZPhEnHkXPG"><g transform="translate(1950.0000000000002 260.0000000000001)"><rect x="0" y="0" width="120" height="40" fill="rgba(255,255,255,0.01)" stroke="rgba(255,255,255,0.01)"/></g><g transform="translate(1966.205, 270.0000000000001) rotate(0, 43.795, 0)" width="87.59" height="18.4"><text text-decoration="none" x="2.2950000000000017" fill="#4b4b4b" font-size="10pt" font-family="noto_regular"  y="17">Train&#160;</text><text text-decoration="none" x="35.295" fill="#4b4b4b" font-size="10pt" font-family="noto_regular"  y="17">Number</text><text text-decoration="none" x="85.295" fill="#4b4b4b" font-size="10pt" font-family="noto_regular"  y="17"></text></g></g><g id="nIqGHYqd4iZ"><g transform="translate(1590 10.000000000000057)"><ellipse cx="49.999999995086384" cy="29.99999999999999" rx="49.999999995086384" ry="29.99999999999999" fill="white" stroke="#7e7e7e" stroke-width="2" stroke-linecap="round" stroke-linejoin="round"/></g><g transform="translate(1639.9949999950863, 31.195000000000043) rotate(0, 0.005, 8.805)" width="0.01" height="17.61"><text text-decoration="none" x="0.005" fill="#4b4b4b" font-size="10pt" font-family="noto_regular"  y="17"></text></g></g><g id="npxX1FeWLYM"><g transform="translate(1579.9999999999998 20.000000000000227)"><rect x="0" y="0" width="120" height="40" fill="rgba(255,255,255,0.01)" stroke="rgba(255,255,255,0.01)"/></g><g transform="translate(1591.9049999999997, 30.000000000000227) rotate(0, 48.095, 0)" width="96.19" height="18.4"><text text-decoration="none" x="2.594999999999999" fill="#4b4b4b" font-size="10pt" font-family="noto_regular"  y="17">Departure&#160;</text><text text-decoration="none" x="66.595" fill="#4b4b4b" font-size="10pt" font-family="noto_regular"  y="17">time</text><text text-decoration="none" x="93.595" fill="#4b4b4b" font-size="10pt" font-family="noto_regular"  y="17"></text></g></g><g id="ufn4p6hEqzv"><g transform="translate(1850.0000000000002 180.00000000000045)"><ellipse cx="49.999999995086384" cy="29.99999999999999" rx="49.999999995086384" ry="29.99999999999999" fill="white" stroke="#7e7e7e" stroke-width="2" stroke-linecap="round" stroke-linejoin="round"/></g><g transform="translate(1899.9949999950863, 201.19500000000045) rotate(0, 0.005, 8.805)" width="0.01" height="17.61"><text text-decoration="none" x="0.005" fill="#4b4b4b" font-size="10pt" font-family="noto_regular"  y="17"></text></g></g><g id="3mgyY5kwPr8"><g transform="translate(1840 180)"><rect x="0" y="0" width="120.00000000000003" height="60.00000000000001" fill="rgba(255,255,255,0.01)" stroke="rgba(255,255,255,0.01)"/></g><g transform="translate(1867.75, 190) rotate(0, 32.25, 0)" width="64.5" height="36.8"><text text-decoration="none" x="1.75" fill="#4b4b4b" font-size="10pt" font-family="noto_regular"  y="14">Departure&#160;</text><text text-decoration="none" x="8.25" fill="#4b4b4b" font-size="10pt" font-family="noto_regular"  y="36">location</text><text text-decoration="none" x="56.25" fill="#4b4b4b" font-size="10pt" font-family="noto_regular"  y="36"></text></g></g><g id="jlGTt0LUa4O"><g transform="translate(2250 40.000000000000114)"><ellipse cx="49.999999995086384" cy="29.99999999999999" rx="49.999999995086384" ry="29.99999999999999" fill="white" stroke="#7e7e7e" stroke-width="2" stroke-linecap="round" stroke-linejoin="round"/></g><g transform="translate(2299.9949999950863, 61.1950000000001) rotate(0, 0.005, 8.805)" width="0.01" height="17.61"><text text-decoration="none" x="0.005" fill="#4b4b4b" font-size="10pt" font-family="noto_regular"  y="17"></text></g></g><g id="ZDYRRGaLPYw"><g transform="translate(2240 50.000000000000114)"><rect x="0" y="0" width="120" height="40" fill="rgba(255,255,255,0.01)" stroke="rgba(255,255,255,0.01)"/></g><g transform="translate(2263.92, 60.000000000000114) rotate(0, 36.08, 0)" width="72.16" height="18.4"><text text-decoration="none" x="1.5799999999999983" fill="#4b4b4b" font-size="10pt" font-family="noto_regular"  y="17">Destination</text><text text-decoration="none" x="70.58" fill="#4b4b4b" font-size="10pt" font-family="noto_regular"  y="17"></text></g></g><g id="e6IQH8IJezb"><g transform="translate(2159.9999999999995 140.00000000000023)"><ellipse cx="49.999999995086384" cy="29.99999999999999" rx="49.999999995086384" ry="29.99999999999999" fill="white" stroke="#7e7e7e" stroke-width="2" stroke-linecap="round" stroke-linejoin="round"/></g><g transform="translate(2209.994999995086, 161.19500000000022) rotate(0, 0.005, 8.805)" width="0.01" height="17.61"><text text-decoration="none" x="0.005" fill="#4b4b4b" font-size="10pt" font-family="noto_regular"  y="17"></text></g></g><g id="6YfBhrfs4w0"><g transform="translate(2150 150.00000000000034)"><rect x="0" y="0" width="120" height="40" fill="rgba(255,255,255,0.01)" stroke="rgba(255,255,255,0.01)"/></g><g transform="translate(2188.48, 160.00000000000034) rotate(0, 21.52, 0)" width="43.04" height="18.4"><text text-decoration="none" x="1.0199999999999996" fill="#4b4b4b" font-size="10pt" font-family="noto_regular"  y="17">Source</text><text text-decoration="none" x="42.019999999999996" fill="#4b4b4b" font-size="10pt" font-family="noto_regular"  y="17"></text></g></g><g id="eET3bpbKHdK"><g><path d="M 2220,-100 L 2150.0000000000005,-100.00000000000007 L 2150,-58 L 2150.0000000000005,-16.84796002978331 L 2080,-17" fill="none" stroke="#7E7E7E" stroke-width="2" stroke-linecap="round" stroke-linejoin="round"/></g></g><g id="Fp20ZBlhNIG"><g><path d="M 1970,-180 L 1969.999999995086,-104.99999999999999 L 1980,-105 L 1989.9999999999998,-104.99999999999999 L 1990,-30" fill="none" stroke="#7E7E7E" stroke-width="2" stroke-linecap="round" stroke-linejoin="round"/></g></g><g id="MsEdjdqqNRm"><g><path d="M 2120,-180 L 2119.9999999950865,-16.84796002978331 L 2080,-17" fill="none" stroke="#7E7E7E" stroke-width="2" stroke-linecap="round" stroke-linejoin="round"/></g></g><g id="vXOgBtEFpDI"><g><path d="M 1850,-110 L 1849.9999999950865,-69.99999999999996 L 1897,-70 L 1943.2234173928596,-69.99999999999996 L 1943,-30" fill="none" stroke="#7E7E7E" stroke-width="2" stroke-linecap="round" stroke-linejoin="round"/></g></g><g id="IS9i94226Zw"><g><path d="M 1730,-50 L 1814.9999999950865,-49.99999999999996 L 1815,-34 L 1814.9999999950865,-17.176657538597578 L 1900,-17" fill="none" stroke="#7E7E7E" stroke-width="2" stroke-linecap="round" stroke-linejoin="round"/></g></g><g id="xYrEksKmrnT"><g><path d="M 1690,40 L 1794.9999999950865,40.00000000000004 L 1795,30 L 1794.9999999950865,20.000000000000014 L 1900,20" fill="none" stroke="#7E7E7E" stroke-width="2" stroke-linecap="round" stroke-linejoin="round"/></g></g><g id="6XMjNTdCkDh"><g><path d="M 1900,180 L 1900,124.99999999999999 L 1909,125 L 1918.7101344746122,124.99999999999999 L 1919,70" fill="none" stroke="#7E7E7E" stroke-width="2" stroke-linecap="round" stroke-linejoin="round"/></g></g><g id="ORpGPr8qkY8"><g><path d="M 2010,250 L 2009.999999995087,160 L 2000,160 L 1989.9999999999998,160 L 1990,70" fill="none" stroke="#7E7E7E" stroke-width="2" stroke-linecap="round" stroke-linejoin="round"/></g></g><g id="FJ52xKGJgxj"><g><path d="M 2182,147 L 2131,147 L 2131,99 L 2131,51.38774641977902 L 2080,51" fill="none" stroke="#7E7E7E" stroke-width="2" stroke-linecap="round" stroke-linejoin="round"/></g></g><g id="RbTwHFJP02e"><g><path d="M 2080,20 L 2165,20.000000000000014 L 2165,45 L 2165,70.0000000000001 L 2250,70" fill="none" stroke="#7E7E7E" stroke-width="2" stroke-linecap="round" stroke-linejoin="round"/></g></g><g id="l37J1oUMAKB"><g><path d="M 1475,290 L 1475,181.740963339365 L 1634,182" fill="none" stroke="#7E7E7E" stroke-width="2" stroke-linecap="round" stroke-linejoin="round"/></g></g><g id="qbdTbjcbOAT"><g><path d="M 1631,182 L 1725,182 L 1725,156 L 1725,130 L 1819,130" fill="none" stroke="#7E7E7E" stroke-width="2" stroke-linecap="round" stroke-linejoin="round"/></g></g><g id="6wJJQnA1d9W"><g><path d="M 1814,133 L 1814.1201273567574,36.44972637994783 L 1900,36" fill="none" stroke="#7E7E7E" stroke-width="2" stroke-linecap="round" stroke-linejoin="round"/></g></g><g id="9l4pMCeV1Xk"><g transform="translate(2130 430)"><path d="M 84.9999999999996,0 L 0,45 L 84.9999999999996,90 L 169.9999999999992,45 L 84.9999999999996,0 Z" fill="rgb(255,255,255)" stroke="#4b4b4b" stroke-width="2" stroke-linecap="round" stroke-linejoin="round"/></g><g transform="translate(2167.2549999999997, 465.8) rotate(0, 47.745, 9.2)" width="95.49" height="18.4"><text text-decoration="none" x="2.7449999999999974" fill="#656565" font-size="10pt" font-family="noto_regular"  y="17">Travel&#160;</text><text text-decoration="none" x="41.745" fill="#656565" font-size="10pt" font-family="noto_regular"  y="17">Through</text><text text-decoration="none" x="92.745" fill="#4b4b4b" font-size="10pt" font-family="noto_regular"  y="17"></text></g></g><g id="wOPDi9Wyxya"><g><path d="M 2048,71 L 2048,250.5 L 2132,251 L 2215,250.5 L 2215,430" fill="none" stroke="#7E7E7E" stroke-width="2" stroke-linecap="round" stroke-linejoin="round"/></g></g><g id="tejCZRNcyVw"><mask id="0c288" x="2201" y="233" width="29" height="211" maskUnits="userSpaceOnUse"><rect x="2201" y="233" width="29" height="211" fill="white" /><rect x="2202.2691714967405" y="326.9036985864175" width="27" height="24" fill="black" /></mask><g mask="url(#0c288)"><path d="M 2215,430 L 2214.9999999999995,338.5828010309705 L 2216,339 L 2216.0206718346253,338.5828010309705 L 2216,247" fill="none" stroke="#7E7E7E" stroke-width="2" stroke-linecap="round" stroke-linejoin="round"/></g><g transform="translate(2205.2691714967405, 329.9036985864175)" width="21" height="18"><text text-decoration="none" x="0.5" fill="#4b4b4b" font-size="10pt" font-family="noto_regular"  y="17">Yes</text><text text-decoration="none" x="20.5" fill="#4b4b4b" font-size="10pt" font-family="noto_regular"  y="17"></text></g></g><g id="c0jGKcFwOPj"><g transform="translate(1950.0000000000002 690.0000000000001)"><rect x="0" y="0" width="149.99999999999787" height="70.0000000000001" fill="rgb(255,255,255)" stroke="#24afaf" stroke-width="2" stroke-linecap="round" stroke-linejoin="round"/></g><g transform="translate(2006.5349999999992, 715.8000000000002) rotate(0, 18.465, 9.2)" width="36.93" height="18.4"><text text-decoration="none" x="0.46499999999999986" fill="#656565" font-size="10pt" font-family="noto_regular"  y="17">Route</text><text text-decoration="none" x="36.465" fill="#4b4b4b" font-size="10pt" font-family="noto_regular"  y="17"></text></g></g><g id="0ecylo4jbiQ"><g transform="translate(1790.0000000000002 580)"><ellipse cx="49.999999995086384" cy="29.99999999999999" rx="49.999999995086384" ry="29.99999999999999" fill="white" stroke="#7e7e7e" stroke-width="2" stroke-linecap="round" stroke-linejoin="round"/></g><g transform="translate(1839.9949999950863, 601.195) rotate(0, 0.005, 8.805)" width="0.01" height="17.61"><text text-decoration="none" x="0.005" fill="#4b4b4b" font-size="10pt" font-family="noto_regular"  y="17"></text></g></g><g id="zAV5DBYBhCd"><g transform="translate(1779.9999999999995 590.0000000000001)"><rect x="0" y="0" width="120" height="40" fill="rgba(255,255,255,0.01)" stroke="rgba(255,255,255,0.01)"/></g><g transform="translate(1812.6799999999996, 600.0000000000001) rotate(0, 27.32, 0)" width="54.64" height="18.4"><text text-decoration="underline" x="1.3200000000000003" fill="#4b4b4b" font-size="10pt" font-family="noto_regular"  y="17">Route&#160;</text><text text-decoration="underline" x="40.32" fill="#4b4b4b" font-size="10pt" font-family="noto_regular"  y="17">ID</text><text text-decoration="none" x="53.32" fill="#4b4b4b" font-size="10pt" font-family="noto_regular"  y="17"></text></g></g><g id="r6NVkZgAd8I"><g transform="translate(1760.0000000000005 700)"><ellipse cx="49.999999995086384" cy="29.99999999999999" rx="49.999999995086384" ry="29.99999999999999" fill="white" stroke="#7e7e7e" stroke-width="2" stroke-linecap="round" stroke-linejoin="round"/></g><g transform="translate(1809.9949999950868, 721.195) rotate(0, 0.005, 8.805)" width="0.01" height="17.61"><text text-decoration="none" x="0.005" fill="#4b4b4b" font-size="10pt" font-family="noto_regular"  y="17"></text></g></g><g id="LfxWJd6aoiX"><g transform="translate(1750 710)"><rect x="0" y="0" width="120" height="40" fill="rgba(255,255,255,0.01)" stroke="rgba(255,255,255,0.01)"/></g><g transform="translate(1768.74, 720) rotate(0, 41.26, 0)" width="82.52" height="18.4"><text text-decoration="none" x="1.759999999999998" fill="#4b4b4b" font-size="10pt" font-family="noto_regular"  y="17">Pick&#160;</text><text text-decoration="none" x="28.759999999999998" fill="#4b4b4b" font-size="10pt" font-family="noto_regular"  y="17">Up&#160;</text><text text-decoration="none" x="48.76" fill="#4b4b4b" font-size="10pt" font-family="noto_regular"  y="17">Point</text><text text-decoration="none" x="80.75999999999999" fill="#4b4b4b" font-size="10pt" font-family="noto_regular"  y="17"></text></g></g><g id="wA93zNdVs6y"><g transform="translate(2010.000000000001 850.0000000000001)"><ellipse cx="49.999999995086384" cy="29.99999999999999" rx="49.999999995086384" ry="29.99999999999999" fill="white" stroke="#7e7e7e" stroke-width="2" stroke-linecap="round" stroke-linejoin="round"/></g><g transform="translate(2059.9949999950873, 871.1950000000002) rotate(0, 0.005, 8.805)" width="0.01" height="17.61"><text text-decoration="none" x="0.005" fill="#4b4b4b" font-size="10pt" font-family="noto_regular"  y="17"></text></g></g><g id="IaFO6GPUjHc"><g transform="translate(2000.0000000000002 859.9999999999998)"><rect x="0" y="0" width="120" height="40" fill="rgba(255,255,255,0.01)" stroke="rgba(255,255,255,0.01)"/></g><g transform="translate(2023.5, 869.9999999999998) rotate(0, 36.5, 0)" width="73" height="18.4"><text text-decoration="none" x="1" fill="#4b4b4b" font-size="10pt" font-family="noto_regular"  y="17">Route&#160;</text><text text-decoration="none" x="40" fill="#4b4b4b" font-size="10pt" font-family="noto_regular"  y="17">Point</text><text text-decoration="none" x="72" fill="#4b4b4b" font-size="10pt" font-family="noto_regular"  y="17"></text></g></g><g id="8nKelh4e6UG"><g><path d="M 1890,610 L 2025,610 L 2025,690" fill="none" stroke="#7E7E7E" stroke-width="2" stroke-linecap="round" stroke-linejoin="round"/></g></g><g id="v1FMakNggVx"><g><path d="M 1950,725 L 1905,725 L 1905,728 L 1905,730 L 1860,730" fill="none" stroke="#7E7E7E" stroke-width="2" stroke-linecap="round" stroke-linejoin="round"/></g></g><g id="QW3ZUwOceh7"><g><path d="M 2025,760 L 2024.999999999999,805.0000000000002 L 2042,805 L 2059.9999999950874,805.0000000000002 L 2060,850" fill="none" stroke="#7E7E7E" stroke-width="2" stroke-linecap="round" stroke-linejoin="round"/></g></g><g id="6Z82uraNCwF"><g><path d="M 2215,520 L 2215,725 L 2100,725" fill="none" stroke="#7E7E7E" stroke-width="2" stroke-linecap="round" stroke-linejoin="round"/></g></g></svg>