<svg xmlns="http://www.w3.org/2000/svg" xmlns:svg="http://www.w3.org/2000/svg" xmlns:xlink="http://www.w3.org/1999/xlink" version="1.0" height="741.535977039875pt" width="1365pt" viewBox="135.0000000000001 -524.5359770398748 1373 747.535977039875" ><defs><style type="text/css">
            @font-face {
                font-family: 'lt_regular';
                src: url('https://app.creately.com/diagram/assets/fonts/lato/lt-regular-webfont.woff2') format('woff2'),
                    url('https://app.creately.com/diagram/assets/fonts/lato/lt-regular-webfont.woff') format('woff');
                font-weight: normal;
                font-style: normal;
            }
            @font-face {
                font-family: 'noto_regular';
                src: url('https://app.creately.com/diagram/assets/fonts/noto/noto-regular.woff') format('woff'),
                     url('https://app.creately.com/diagram/assets/fonts/noto/noto-regular.woff2') format('woff2');
                font-weight: normal;
                font-style: normal;
            }
        p {
            margin: 0;
        }
        </style></defs><defs><style>
            span{ display: inline-block; }
        </style></defs><g id="2HzeeRNND73"><g transform="translate(170.0000000000001 -390)"><ellipse cx="46.1538461538464" cy="20.0000000000001" rx="46.1538461538464" ry="20.0000000000001" fill="rgb(125,136,138)" stroke="#7d888a" stroke-width="2" stroke-linecap="round" stroke-linejoin="round" stroke-dasharray="0 0"/></g><g transform="translate(178.65384615384653, -379.9999999999999) rotate(0, 37.5, 10)" width="75" height="20"><text text-decoration="none" x="0" fill="rgb(253, 246, 246)" font-size="10pt" font-family="lt_regular"  y="15">Cus_Address</text><text text-decoration="none" x="75" fill="#4b4b4b" font-size="10pt" font-family="noto_regular"  y="15"></text></g></g><g id="ZpCnehhxgtN"><g transform="translate(810 -460)"><ellipse cx="46.1538461538464" cy="20.0000000000001" rx="46.1538461538464" ry="20.0000000000001" fill="rgb(125,136,138)" stroke="#7d888a" stroke-width="2" stroke-linecap="round" stroke-linejoin="round" stroke-dasharray="0 0"/></g><g transform="translate(825.1538461538464, -449.9999999999999) rotate(0, 31, 10)" width="62" height="20"><text text-decoration="none" x="0.5" fill="rgb(253, 246, 246)" font-size="10pt" font-family="lt_regular"  y="15">Acount_ID</text><text text-decoration="none" x="61.5" fill="#4b4b4b" font-size="10pt" font-family="noto_regular"  y="15"></text></g></g><g id="tReYu4PUKRt"><g transform="translate(160.00000000000006 -340.0000000000001)"><ellipse cx="51.153846153846466" cy="20.0000000000001" rx="51.153846153846466" ry="20.0000000000001" fill="rgb(125,136,138)" stroke="#7d888a" stroke-width="2" stroke-linecap="round" stroke-linejoin="round" stroke-dasharray="0 0"/></g><g transform="translate(165.65384615384653, -330) rotate(0, 45.5, 10)" width="91" height="20"><text text-decoration="none" x="1" fill="rgb(253, 246, 246)" font-size="10pt" font-family="lt_regular"  y="15">Cus_Mobile-No</text><text text-decoration="none" x="90" fill="#4b4b4b" font-size="10pt" font-family="noto_regular"  y="15"></text></g></g><g id="dGe8QkPW9uM"><g transform="translate(270.00000000000034 -390.00000000000006)"><ellipse cx="46.1538461538464" cy="20.0000000000001" rx="46.1538461538464" ry="20.0000000000001" fill="rgb(125,136,138)" stroke="#7d888a" stroke-width="2" stroke-linecap="round" stroke-linejoin="round" stroke-dasharray="0 0"/></g><g transform="translate(285.15384615384676, -380) rotate(0, 31, 10)" width="62" height="20"><text text-decoration="none" x="0" fill="rgb(253, 246, 246)" font-size="10pt" font-family="lt_regular"  y="15">Cus_Name</text><text text-decoration="none" x="62" fill="#4b4b4b" font-size="10pt" font-family="noto_regular"  y="15"></text></g></g><g id="R83VEHqqtzO"><g transform="translate(330 -300)"><rect x="0" y="0" width="120" height="60" fill="rgb(39,59,79)" stroke="#273b4f" stroke-width="2" stroke-linecap="round" stroke-linejoin="round" stroke-dasharray="0 0"/></g><g transform="translate(367.5, -280) rotate(0, 22.5, 10)" width="45" height="20"><text text-decoration="none" x="0" fill="rgb(255, 255, 255)" font-size="10pt" font-family="lt_regular"  y="15">Process</text><text text-decoration="none" x="45" fill="#4b4b4b" font-size="10pt" font-family="noto_regular"  y="15"></text></g></g><g id="Wpq81Llf7AA"><g transform="translate(170.0000000000001 -239.9999999999999)"><ellipse cx="46.1538461538464" cy="20.0000000000001" rx="46.1538461538464" ry="20.0000000000001" fill="rgb(125,136,138)" stroke="#7d888a" stroke-width="2" stroke-linecap="round" stroke-linejoin="round" stroke-dasharray="0 0"/></g><g transform="translate(201.15384615384653, -229.99999999999977) rotate(0, 15, 10)" width="30" height="20"><text text-decoration="none" x="1" fill="rgb(253, 246, 246)" font-size="10pt" font-family="lt_regular"  y="15">DOB</text><text text-decoration="none" x="29" fill="#4b4b4b" font-size="10pt" font-family="noto_regular"  y="15"></text></g></g><g id="KeVeHFYe3Af"><g transform="translate(380.0000000000001 -389.99999999999994)"><ellipse cx="46.1538461538464" cy="20.0000000000001" rx="46.1538461538464" ry="20.0000000000001" fill="rgb(125,136,138)" stroke="#7d888a" stroke-width="2" stroke-linecap="round" stroke-linejoin="round" stroke-dasharray="0 0"/></g><g transform="translate(405.15384615384653, -379.9999999999999) rotate(0, 21, 10)" width="42" height="20"><text text-decoration="none" x="0" fill="rgb(253, 246, 246)" font-size="10pt" font-family="lt_regular"  y="15">Cus_ID</text><text text-decoration="none" x="42" fill="#4b4b4b" font-size="10pt" font-family="noto_regular"  y="15"></text></g></g><g id="PQSqPuMXPbX"><g transform="translate(169.9999999999999 -290)"><ellipse cx="46.1538461538464" cy="20.0000000000001" rx="46.1538461538464" ry="20.0000000000001" fill="rgb(125,136,138)" stroke="#7d888a" stroke-width="2" stroke-linecap="round" stroke-linejoin="round" stroke-dasharray="0 0"/></g><g transform="translate(194.6538461538463, -279.9999999999999) rotate(0, 21.5, 10)" width="43" height="20"><text text-decoration="none" x="0" fill="rgb(253, 246, 246)" font-size="10pt" font-family="lt_regular"  y="15">Gender</text><text text-decoration="none" x="43" fill="#4b4b4b" font-size="10pt" font-family="noto_regular"  y="15"></text></g></g><g id="LmyHBGPpUTV"><g transform="translate(170.0000000000001 -189.99999999999994)"><ellipse cx="46.1538461538464" cy="20.0000000000001" rx="46.1538461538464" ry="20.0000000000001" fill="rgb(125,136,138)" stroke="#7d888a" stroke-width="2" stroke-linecap="round" stroke-linejoin="round" stroke-dasharray="0 0"/></g><g transform="translate(186.65384615384653, -179.99999999999983) rotate(0, 29.5, 10)" width="59" height="20"><text text-decoration="none" x="0" fill="rgb(253, 246, 246)" font-size="10pt" font-family="lt_regular"  y="15">Cus_Email</text><text text-decoration="none" x="59" fill="#4b4b4b" font-size="10pt" font-family="noto_regular"  y="15"></text></g></g><g id="qKcmg0ryPT5"><g><path d="M 262,-170 L 330,-270" fill="none" stroke="#7E7E7E" stroke-width="2" stroke-linecap="round" stroke-linejoin="round"/></g></g><g id="J3fRhVHbJmL"><g><path d="M 262,-220 L 330,-270" fill="none" stroke="#7E7E7E" stroke-width="2" stroke-linecap="round" stroke-linejoin="round"/></g></g><g id="0gkre5eOApv"><g><path d="M 262,-270 L 330,-270" fill="none" stroke="#7E7E7E" stroke-width="2" stroke-linecap="round" stroke-linejoin="round"/></g></g><g id="PmAlAclmYcT"><g><path d="M 262,-320 L 330,-270" fill="none" stroke="#7E7E7E" stroke-width="2" stroke-linecap="round" stroke-linejoin="round"/></g></g><g id="xzb1CExaEYG"><g><path d="M 262,-370 L 330,-270" fill="none" stroke="#7E7E7E" stroke-width="2" stroke-linecap="round" stroke-linejoin="round"/></g></g><g id="iZEajfFHUIW"><g><path d="M 362,-370 L 390,-300" fill="none" stroke="#7E7E7E" stroke-width="2" stroke-linecap="round" stroke-linejoin="round"/></g></g><g id="jvw6k1ynM0G"><g><path d="M 426,-350 L 390,-300" fill="none" stroke="#7E7E7E" stroke-width="2" stroke-linecap="round" stroke-linejoin="round"/></g></g><g id="5SaNrIvYGBW"><g transform="translate(330.0000000000003 -160)"><path d="M 60.00000000000003,0 L 0,40.000000000000014 L 60.00000000000003,80.00000000000003 L 120.00000000000006,40.000000000000014 L 60.00000000000003,0 Z" fill="rgb(239,77,55)" stroke="#ef4d37" stroke-width="2" stroke-linecap="round" stroke-linejoin="round" stroke-dasharray="0 0"/></g><g transform="translate(358.50000000000034, -130) rotate(0, 31.5, 10)" width="63" height="20"><text text-decoration="none" x="0.5" fill="rgb(255, 255, 255)" font-size="10pt" font-family="lt_regular"  y="15">Manage&#160;</text><text text-decoration="none" x="48.5" fill="rgb(255, 255, 255)" font-size="10pt" font-family="lt_regular"  y="15">by</text><text text-decoration="none" x="62.5" fill="#4b4b4b" font-size="10pt" font-family="noto_regular"  y="15"></text></g></g><g id="aG2MEkM3Ej9"><mask id="bd5fb" x="376" y="-254" width="28" height="108" maskUnits="userSpaceOnUse"><rect x="376" y="-254" width="28" height="108" fill="white" /><rect x="381.00000000000017" y="-213" width="18" height="26" fill="black" /></mask><g mask="url(#bd5fb)"><path d="M 390,-240 L 390,-210 Q 390,-210 390,-200 Q 390.0000000000002,-190.00000000000034 390.0000000000002,-190 L 390,-160" fill="none" stroke="#7E7E7E" stroke-width="2" stroke-linecap="round" stroke-linejoin="round"/></g><g transform="translate(384.00000000000017, -210)" width="12" height="20"><text text-decoration="none" x="0" fill="#4b4b4b" font-size="10pt" font-family="lt_regular"  y="15">M</text><text text-decoration="none" x="12" fill="#4b4b4b" font-size="10pt" font-family="noto_regular"  y="15"></text></g></g><g id="R25r8lK4M3M"><g transform="translate(329.99999999999994 0)"><rect x="0" y="0" width="120.00000000000006" height="60.00000000000003" fill="rgb(39,59,79)" stroke="#273b4f" stroke-width="2" stroke-linecap="round" stroke-linejoin="round" stroke-dasharray="0 0"/></g><g transform="translate(367.5, 20.000000000000014) rotate(0, 22.5, 10)" width="45" height="20"><text text-decoration="none" x="0" fill="rgb(255, 255, 255)" font-size="10pt" font-family="lt_regular"  y="15">Process</text><text text-decoration="none" x="45" fill="#4b4b4b" font-size="10pt" font-family="noto_regular"  y="15"></text></g></g><g id="h8fABCzXd8j"><g transform="translate(819.9999999999999 -510.00000000000006)"><ellipse cx="46.1538461538464" cy="20.0000000000001" rx="46.1538461538464" ry="20.0000000000001" fill="rgb(125,136,138)" stroke="#7d888a" stroke-width="2" stroke-linecap="round" stroke-linejoin="round" stroke-dasharray="0 0"/></g><g transform="translate(836.6538461538463, -500) rotate(0, 29.5, 10)" width="59" height="20"><text text-decoration="none" x="0" fill="rgb(253, 246, 246)" font-size="10pt" font-family="lt_regular"  y="15">Username</text><text text-decoration="none" x="59" fill="#4b4b4b" font-size="10pt" font-family="noto_regular"  y="15"></text></g></g><g id="oy5MicZmlP7"><g transform="translate(790 -410)"><ellipse cx="46.1538461538464" cy="20.0000000000001" rx="46.1538461538464" ry="20.0000000000001" fill="rgb(125,136,138)" stroke="#7d888a" stroke-width="2" stroke-linecap="round" stroke-linejoin="round" stroke-dasharray="0 0"/></g><g transform="translate(808.1538461538464, -399.9999999999999) rotate(0, 28, 10)" width="56" height="20"><text text-decoration="none" x="0.5" fill="rgb(253, 246, 246)" font-size="10pt" font-family="lt_regular"  y="15">Password</text><text text-decoration="none" x="55.5" fill="#4b4b4b" font-size="10pt" font-family="noto_regular"  y="15"></text></g></g><g id="kSwm5UrGRdT"><g transform="translate(140.0000000000001 59.999999999999886)"><ellipse cx="61.1538461538463" cy="20.0000000000001" rx="61.1538461538463" ry="20.0000000000001" fill="rgb(125,136,138)" stroke="#7d888a" stroke-width="2" stroke-linecap="round" stroke-linejoin="round" stroke-dasharray="0 0"/></g><g transform="translate(152.15384615384642, 69.99999999999999) rotate(0, 49, 10)" width="98" height="20"><text text-decoration="none" x="1" fill="rgb(253, 246, 246)" font-size="10pt" font-family="lt_regular"  y="15">Staff_Mobile_No</text><text text-decoration="none" x="97" fill="#4b4b4b" font-size="10pt" font-family="noto_regular"  y="15"></text></g></g><g id="s2oFRW2FZ3g"><g transform="translate(170 10.000000000000057)"><ellipse cx="46.1538461538464" cy="20.0000000000001" rx="46.1538461538464" ry="20.0000000000001" fill="rgb(125,136,138)" stroke="#7d888a" stroke-width="2" stroke-linecap="round" stroke-linejoin="round" stroke-dasharray="0 0"/></g><g transform="translate(182.15384615384642, 20.000000000000156) rotate(0, 34, 10)" width="68" height="20"><text text-decoration="none" x="0" fill="rgb(253, 246, 246)" font-size="10pt" font-family="lt_regular"  y="15">Staff_Name</text><text text-decoration="none" x="68" fill="#4b4b4b" font-size="10pt" font-family="noto_regular"  y="15"></text></g></g><g id="9FQPiOkkYcE"><g transform="translate(169.9999999999999 -40)"><ellipse cx="46.1538461538464" cy="20.0000000000001" rx="46.1538461538464" ry="20.0000000000001" fill="rgb(125,136,138)" stroke="#7d888a" stroke-width="2" stroke-linecap="round" stroke-linejoin="round" stroke-dasharray="0 0"/></g><g transform="translate(192.6538461538463, -29.9999999999999) rotate(0, 23.5, 10)" width="47" height="20"><text text-decoration="none" x="0" fill="rgb(253, 246, 246)" font-size="10pt" font-family="lt_regular"  y="15">Staff_ID</text><text text-decoration="none" x="48" fill="#4b4b4b" font-size="10pt" font-family="noto_regular"  y="15"></text></g></g><g id="EvVsfzYp0YD"><g><path d="M 262,-20 L 330,30" fill="none" stroke="#7E7E7E" stroke-width="2" stroke-linecap="round" stroke-linejoin="round"/></g></g><g id="USmoSdfPmSD"><g><path d="M 262,30 L 330,30" fill="none" stroke="#7E7E7E" stroke-width="2" stroke-linecap="round" stroke-linejoin="round"/></g></g><g id="0fECgTa2oGC"><g><path d="M 262,80 L 330,30" fill="none" stroke="#7E7E7E" stroke-width="2" stroke-linecap="round" stroke-linejoin="round"/></g></g><g id="IIHCRqJtvsQ"><mask id="35e84" x="376" y="-94" width="28" height="108" maskUnits="userSpaceOnUse"><rect x="376" y="-94" width="28" height="108" fill="white" /><rect x="382.00000000000017" y="-52.99999999999999" width="16" height="26" fill="black" /></mask><g mask="url(#35e84)"><path d="M 390,-80 L 390.0000000000003,-49.999999999999986 Q 390.0000000000003,-49.999999999999645 390,-40 Q 390,-30 390,-29.999999999999986 L 390,0" fill="none" stroke="#7E7E7E" stroke-width="2" stroke-linecap="round" stroke-linejoin="round"/></g><g transform="translate(385.00000000000017, -49.99999999999999)" width="10" height="20"><text text-decoration="none" x="0" fill="#4b4b4b" font-size="10pt" font-family="lt_regular"  y="15">N</text><text text-decoration="none" x="10" fill="#4b4b4b" font-size="10pt" font-family="noto_regular"  y="15"></text></g></g><g id="UfwWSBJKqfw"><g transform="translate(590 -400)"><path d="M 60.00000000000003,0 L 0,40.000000000000014 L 60.00000000000003,80.00000000000003 L 120.00000000000006,40.000000000000014 L 60.00000000000003,0 Z" fill="rgb(239,77,55)" stroke="#ef4d37" stroke-width="2" stroke-linecap="round" stroke-linejoin="round" stroke-dasharray="0 0"/></g><g transform="translate(629.5, -370) rotate(0, 20.5, 10)" width="41" height="20"><text text-decoration="none" x="0" fill="rgb(255, 255, 255)" font-size="10pt" font-family="lt_regular"  y="15">Create&#160;</text><text text-decoration="none" x="42" fill="#4b4b4b" font-size="10pt" font-family="noto_regular"  y="15"></text></g></g><g id="ZaBMgEgyUYg"><g transform="translate(590 -219.9999999999999)"><path d="M 60.00000000000003,0 L 0,40.000000000000014 L 60.00000000000003,80.00000000000003 L 120.00000000000006,40.000000000000014 L 60.00000000000003,0 Z" fill="rgb(239,77,55)" stroke="#ef4d37" stroke-width="2" stroke-linecap="round" stroke-linejoin="round" stroke-dasharray="0 0"/></g><g transform="translate(636, -189.9999999999999) rotate(0, 14, 10)" width="28" height="20"><text text-decoration="none" x="0.5" fill="rgb(255, 255, 255)" font-size="10pt" font-family="lt_regular"  y="15">login</text><text text-decoration="none" x="27.5" fill="#4b4b4b" font-size="10pt" font-family="noto_regular"  y="15"></text></g></g><g id="SWrb2JXhZHr"><mask id="b0fae" x="436" y="-374" width="168" height="118" maskUnits="userSpaceOnUse"><rect x="436" y="-374" width="168" height="118" fill="white" /><rect x="513" y="-346.41921421364594" width="14" height="26" fill="black" /></mask><g mask="url(#b0fae)"><path d="M 450,-270 L 520,-270 L 520,-315 L 520,-360 L 590,-360" fill="none" stroke="#7E7E7E" stroke-width="2" stroke-linecap="round" stroke-linejoin="round"/></g><g transform="translate(516, -343.41921421364594)" width="8" height="20"><text text-decoration="none" x="0" fill="#4b4b4b" font-size="10pt" font-family="lt_regular"  y="15">1</text><text text-decoration="none" x="8" fill="#4b4b4b" font-size="10pt" font-family="noto_regular"  y="15"></text></g></g><g id="anJleIszzea"><mask id="8bfa2" x="436" y="-284" width="168" height="118" maskUnits="userSpaceOnUse"><rect x="436" y="-284" width="168" height="118" fill="white" /><rect x="513" y="-228.01886457102165" width="14" height="26" fill="black" /></mask><g mask="url(#8bfa2)"><path d="M 590,-180 L 520,-180 L 520,-225 L 520,-270 L 450,-270" fill="none" stroke="#7E7E7E" stroke-width="2" stroke-linecap="round" stroke-linejoin="round"/></g><g transform="translate(516, -225.01886457102165)" width="8" height="20"><text text-decoration="none" x="0" fill="#4b4b4b" font-size="10pt" font-family="lt_regular"  y="15">1</text><text text-decoration="none" x="8" fill="#4b4b4b" font-size="10pt" font-family="noto_regular"  y="15"></text></g></g><g id="h7hLn3AKgsb"><g transform="translate(860.0000000000002 -300)"><rect x="0" y="0" width="120.00000000000006" height="60.00000000000003" fill="rgb(39,59,79)" stroke="#273b4f" stroke-width="2" stroke-linecap="round" stroke-linejoin="round" stroke-dasharray="0 0"/></g><g transform="translate(895.5000000000002, -280) rotate(0, 24.5, 10)" width="49" height="20"><text text-decoration="none" x="1" fill="rgb(255, 255, 255)" font-size="10pt" font-family="lt_regular"  y="15">Account</text><text text-decoration="none" x="48" fill="#4b4b4b" font-size="10pt" font-family="noto_regular"  y="15"></text></g></g><g id="9qcBH8r9YcL"><mask id="4cf76" x="696" y="-374" width="178" height="118" maskUnits="userSpaceOnUse"><rect x="696" y="-374" width="178" height="118" fill="white" /><rect x="778.0000000000001" y="-356.4150927855534" width="14" height="26" fill="black" /></mask><g mask="url(#4cf76)"><path d="M 710,-360 L 785.0000000000001,-360 L 785,-315 L 785.0000000000001,-270 L 860,-270" fill="none" stroke="#7E7E7E" stroke-width="2" stroke-linecap="round" stroke-linejoin="round"/></g><g transform="translate(781.0000000000001, -353.4150927855534)" width="8" height="20"><text text-decoration="none" x="0" fill="#4b4b4b" font-size="10pt" font-family="lt_regular"  y="15">1</text><text text-decoration="none" x="8" fill="#4b4b4b" font-size="10pt" font-family="noto_regular"  y="15"></text></g></g><g id="fiylBbFxaOl"><mask id="8a81c" x="696" y="-284" width="178" height="118" maskUnits="userSpaceOnUse"><rect x="696" y="-284" width="178" height="118" fill="white" /><rect x="778" y="-219.097035674545" width="14" height="26" fill="black" /></mask><g mask="url(#8a81c)"><path d="M 710,-180 L 785.0000000000001,-179.9999999999999 L 785,-225 L 785.0000000000001,-270 L 860,-270" fill="none" stroke="#7E7E7E" stroke-width="2" stroke-linecap="round" stroke-linejoin="round"/></g><g transform="translate(781, -216.097035674545)" width="8" height="20"><text text-decoration="none" x="0" fill="#4b4b4b" font-size="10pt" font-family="lt_regular"  y="15">1</text><text text-decoration="none" x="8" fill="#4b4b4b" font-size="10pt" font-family="noto_regular"  y="15"></text></g></g><g id="zXtQ4UOC7yM"><g transform="translate(970.0000000000001 -410)"><ellipse cx="46.1538461538464" cy="20.0000000000001" rx="46.1538461538464" ry="20.0000000000001" fill="rgb(125,136,138)" stroke="#7d888a" stroke-width="2" stroke-linecap="round" stroke-linejoin="round" stroke-dasharray="0 0"/></g><g transform="translate(977.1538461538464, -399.9999999999999) rotate(0, 39, 10)" width="78" height="20"><text text-decoration="none" x="0.5" fill="rgb(253, 246, 246)" font-size="10pt" font-family="lt_regular"  y="15">Secure_Word</text><text text-decoration="none" x="77.5" fill="#4b4b4b" font-size="10pt" font-family="noto_regular"  y="15"></text></g></g><g id="BfnTIkvZYFX"><g transform="translate(959.9999999999999 -460)"><ellipse cx="46.1538461538464" cy="20.0000000000001" rx="46.1538461538464" ry="20.0000000000001" fill="rgb(125,136,138)" stroke="#7d888a" stroke-width="2" stroke-linecap="round" stroke-linejoin="round" stroke-dasharray="0 0"/></g><g transform="translate(973.1538461538462, -449.9999999999999) rotate(0, 33, 10)" width="66" height="20"><text text-decoration="none" x="0" fill="rgb(253, 246, 246)" font-size="10pt" font-family="lt_regular"  y="15">Trans_Limit</text><text text-decoration="none" x="67" fill="#4b4b4b" font-size="10pt" font-family="noto_regular"  y="15"></text></g></g><g id="2RM5LL5SDgK"><g transform="translate(940 -510)"><ellipse cx="61" cy="20.0000000000001" rx="61" ry="20.0000000000001" fill="rgb(125,136,138)" stroke="#7d888a" stroke-width="2" stroke-linecap="round" stroke-linejoin="round" stroke-dasharray="0 0"/></g><g transform="translate(950, -499.9999999999999) rotate(0, 51, 10)" width="102" height="20"><text text-decoration="none" x="1.5" fill="rgb(253, 246, 246)" font-size="10pt" font-family="lt_regular"  y="15">Account_Amount</text><text text-decoration="none" x="100.5" fill="#4b4b4b" font-size="10pt" font-family="noto_regular"  y="15"></text></g></g><g id="OJxyaV6i3Cw"><g transform="translate(859.9999999999999 -150)"><path d="M 60.00000000000003,0 L 0,40.000000000000014 L 60.00000000000003,80.00000000000003 L 120.00000000000006,40.000000000000014 L 60.00000000000003,0 Z" fill="rgb(239,77,55)" stroke="#ef4d37" stroke-width="2" stroke-linecap="round" stroke-linejoin="round" stroke-dasharray="0 0"/></g><g transform="translate(904.5, -119.99999999999999) rotate(0, 15.5, 10)" width="31" height="20"><text text-decoration="none" x="0" fill="rgb(255, 255, 255)" font-size="10pt" font-family="lt_regular"  y="15">make</text><text text-decoration="none" x="31" fill="#4b4b4b" font-size="10pt" font-family="noto_regular"  y="15"></text></g></g><g id="Tk9OUYfHxjr"><g><path d="M 882,-390 L 920,-300" fill="none" stroke="#7E7E7E" stroke-width="2" stroke-linecap="round" stroke-linejoin="round"/></g></g><g id="LBSvewv59YT"><g><path d="M 970,-390 L 920,-300" fill="none" stroke="#7E7E7E" stroke-width="2" stroke-linecap="round" stroke-linejoin="round"/></g></g><g id="mu5cteBprK7"><g><path d="M 902,-440 L 920,-300" fill="none" stroke="#7E7E7E" stroke-width="2" stroke-linecap="round" stroke-linejoin="round"/></g></g><g id="eiBBvJNQ7dA"><g><path d="M 960,-440 L 920,-300" fill="none" stroke="#7E7E7E" stroke-width="2" stroke-linecap="round" stroke-linejoin="round"/></g></g><g id="jv6OfohCXIm"><g><path d="M 940,-490 L 920,-300" fill="none" stroke="#7E7E7E" stroke-width="2" stroke-linecap="round" stroke-linejoin="round"/></g></g><g id="8QOqnVEIDQ7"><g><path d="M 912,-490 L 920,-300" fill="none" stroke="#7E7E7E" stroke-width="2" stroke-linecap="round" stroke-linejoin="round"/></g></g><g id="3Y2WiFpCAiZ"><mask id="fe676" x="906" y="-254" width="28" height="118" maskUnits="userSpaceOnUse"><rect x="906" y="-254" width="28" height="118" fill="white" /><rect x="913.0000000000001" y="-208" width="14" height="26" fill="black" /></mask><g mask="url(#fe676)"><path d="M 920,-240 L 920.0000000000002,-205 Q 920.0000000000002,-204.99999999999977 920,-195 Q 920,-185 920,-185 L 920,-150" fill="none" stroke="#7E7E7E" stroke-width="2" stroke-linecap="round" stroke-linejoin="round"/></g><g transform="translate(916.0000000000001, -205)" width="8" height="20"><text text-decoration="none" x="0" fill="#4b4b4b" font-size="10pt" font-family="lt_regular"  y="15">1</text><text text-decoration="none" x="8" fill="#4b4b4b" font-size="10pt" font-family="noto_regular"  y="15"></text></g></g><g id="4SOzmnaAOsq"><g transform="translate(860.0000000000002 -10.000000000000057)"><rect x="0" y="0" width="120.00000000000006" height="60.00000000000003" fill="rgb(39,59,79)" stroke="#273b4f" stroke-width="2" stroke-linecap="round" stroke-linejoin="round" stroke-dasharray="0 0"/></g><g transform="translate(895.5000000000002, 9.999999999999957) rotate(0, 24.5, 10)" width="49" height="20"><text text-decoration="none" x="1" fill="rgb(255, 255, 255)" font-size="10pt" font-family="lt_regular"  y="15">Account</text><text text-decoration="none" x="48" fill="#4b4b4b" font-size="10pt" font-family="noto_regular"  y="15"></text></g></g><g id="FRw2GztfkH2"><g transform="translate(750.0000000000001 79.99999999999994)"><ellipse cx="46.1538461538464" cy="20.0000000000001" rx="46.1538461538464" ry="20.0000000000001" fill="rgb(125,136,138)" stroke="#7d888a" stroke-width="2" stroke-linecap="round" stroke-linejoin="round" stroke-dasharray="0 0"/></g><g transform="translate(760.6538461538465, 90.00000000000004) rotate(0, 35.5, 10)" width="71" height="20"><text text-decoration="none" x="0" fill="rgb(253, 246, 246)" font-size="10pt" font-family="lt_regular"  y="15">Payment_ID</text><text text-decoration="none" x="71" fill="#4b4b4b" font-size="10pt" font-family="noto_regular"  y="15"></text></g></g><g id="JF1saqIRhnJ"><g transform="translate(880 180.00000000000006)"><ellipse cx="62" cy="20.0000000000001" rx="62" ry="20.0000000000001" fill="rgb(125,136,138)" stroke="#7d888a" stroke-width="2" stroke-linecap="round" stroke-linejoin="round" stroke-dasharray="0 0"/></g><g transform="translate(890, 190.00000000000017) rotate(0, 52, 10)" width="104" height="20"><text text-decoration="none" x="0.5" fill="rgb(253, 246, 246)" font-size="10pt" font-family="lt_regular"  y="15">Payment_Amount</text><text text-decoration="none" x="103.5" fill="#4b4b4b" font-size="10pt" font-family="noto_regular"  y="15"></text></g></g><g id="VjsA8IeYhUd"><g transform="translate(809.9999999999999 130.00000000000006)"><ellipse cx="46.1538461538464" cy="20.0000000000001" rx="46.1538461538464" ry="20.0000000000001" fill="rgb(125,136,138)" stroke="#7d888a" stroke-width="2" stroke-linecap="round" stroke-linejoin="round" stroke-dasharray="0 0"/></g><g transform="translate(813.1538461538463, 140.00000000000017) rotate(0, 43, 10)" width="86" height="20"><text text-decoration="none" x="0" fill="rgb(253, 246, 246)" font-size="10pt" font-family="lt_regular"  y="15">Payment_Type</text><text text-decoration="none" x="86" fill="#4b4b4b" font-size="10pt" font-family="noto_regular"  y="15"></text></g></g><g id="9FakpyhrSIv"><g transform="translate(980 79.99999999999994)"><ellipse cx="46.1538461538464" cy="20.0000000000001" rx="46.1538461538464" ry="20.0000000000001" fill="rgb(125,136,138)" stroke="#7d888a" stroke-width="2" stroke-linecap="round" stroke-linejoin="round" stroke-dasharray="0 0"/></g><g transform="translate(989.6538461538464, 90.00000000000004) rotate(0, 36.5, 10)" width="73" height="20"><text text-decoration="none" x="0.5" fill="rgb(253, 246, 246)" font-size="10pt" font-family="lt_regular"  y="15">Biller_Name&#160;</text><text text-decoration="none" x="72.5" fill="#4b4b4b" font-size="10pt" font-family="noto_regular"  y="15"></text></g></g><g id="zNuryKote7e"><g transform="translate(950 130.00000000000006)"><ellipse cx="46.1538461538464" cy="20.0000000000001" rx="46.1538461538464" ry="20.0000000000001" fill="rgb(125,136,138)" stroke="#7d888a" stroke-width="2" stroke-linecap="round" stroke-linejoin="round" stroke-dasharray="0 0"/></g><g transform="translate(955.6538461538464, 140.00000000000017) rotate(0, 40.5, 10)" width="81" height="20"><text text-decoration="none" x="1" fill="rgb(253, 246, 246)" font-size="10pt" font-family="lt_regular"  y="15">Biller_Acount&#160;</text><text text-decoration="none" x="80" fill="#4b4b4b" font-size="10pt" font-family="noto_regular"  y="15"></text></g></g><g id="FCVZUK6Mqzc"><mask id="d21fc" x="906" y="-84" width="28" height="88" maskUnits="userSpaceOnUse"><rect x="906" y="-84" width="28" height="88" fill="white" /><rect x="911" y="-53" width="18" height="26" fill="black" /></mask><g mask="url(#d21fc)"><path d="M 920,-70 L 920,-10" fill="none" stroke="#7E7E7E" stroke-width="2" stroke-linecap="round" stroke-linejoin="round"/></g><g transform="translate(914, -50)" width="12" height="20"><text text-decoration="none" x="0" fill="#4b4b4b" font-size="10pt" font-family="lt_regular"  y="15">M</text><text text-decoration="none" x="12" fill="#4b4b4b" font-size="10pt" font-family="noto_regular"  y="15"></text></g></g><g id="5hYLMB8bXAT"><g><path d="M 842,100 L 920,50" fill="none" stroke="#7E7E7E" stroke-width="2" stroke-linecap="round" stroke-linejoin="round"/></g></g><g id="WYNfOXPGo5j"><g><path d="M 902,150 L 920,50" fill="none" stroke="#7E7E7E" stroke-width="2" stroke-linecap="round" stroke-linejoin="round"/></g></g><g id="pU10n6Ldnqk"><g><path d="M 942,180 L 920,50" fill="none" stroke="#7E7E7E" stroke-width="2" stroke-linecap="round" stroke-linejoin="round"/></g></g><g id="GD5nGugzmaW"><g><path d="M 950,150 L 920,50" fill="none" stroke="#7E7E7E" stroke-width="2" stroke-linecap="round" stroke-linejoin="round"/></g></g><g id="lna1aaWinH7"><g><path d="M 980,100 L 920,50" fill="none" stroke="#7E7E7E" stroke-width="2" stroke-linecap="round" stroke-linejoin="round"/></g></g><g id="Vegw3n26Ix6"><g transform="translate(1080 -310)"><path d="M 60.00000000000004,0 L 0,40.00000000000003 L 60.00000000000004,80.00000000000006 L 120.00000000000009,40.00000000000003 L 60.00000000000004,0 Z" fill="rgb(239,77,55)" stroke="#ef4d37" stroke-width="2" stroke-linecap="round" stroke-linejoin="round" stroke-dasharray="0 0"/></g><g transform="translate(1124, -280) rotate(0, 16, 10)" width="32" height="20"><text text-decoration="none" x="0" fill="rgb(255, 255, 255)" font-size="10pt" font-family="lt_regular"  y="15">Make</text><text text-decoration="none" x="32" fill="#4b4b4b" font-size="10pt" font-family="noto_regular"  y="15"></text></g></g><g id="0TRXYbP0UEH"><mask id="87649" x="966" y="-284" width="128" height="28" maskUnits="userSpaceOnUse"><rect x="966" y="-284" width="128" height="28" fill="white" /><rect x="1023" y="-283" width="14" height="26" fill="black" /></mask><g mask="url(#87649)"><path d="M 980,-270 L 1080,-270" fill="none" stroke="#7E7E7E" stroke-width="2" stroke-linecap="round" stroke-linejoin="round"/></g><g transform="translate(1026, -280)" width="8" height="20"><text text-decoration="none" x="0" fill="#4b4b4b" font-size="10pt" font-family="lt_regular"  y="15">1</text><text text-decoration="none" x="8" fill="#4b4b4b" font-size="10pt" font-family="noto_regular"  y="15"></text></g></g><g id="WCq8yYDFhhd"><g transform="translate(1200 -469.99999999999994)"><ellipse cx="56.5" cy="20.0000000000001" rx="56.5" ry="20.0000000000001" fill="rgb(125,136,138)" stroke="#7d888a" stroke-width="2" stroke-linecap="round" stroke-linejoin="round" stroke-dasharray="0 0"/></g><g transform="translate(1210, -459.9999999999999) rotate(0, 46.5, 10)" width="93" height="20"><text text-decoration="none" x="0" fill="rgb(253, 246, 246)" font-size="10pt" font-family="lt_regular"  y="15">Traasction-Type</text><text text-decoration="none" x="93" fill="#4b4b4b" font-size="10pt" font-family="noto_regular"  y="15"></text></g></g><g id="Y0t9Fd81QOr"><g transform="translate(1240 -521.5359770398748)"><ellipse cx="46.1538461538464" cy="20.0000000000001" rx="46.1538461538464" ry="20.0000000000001" fill="rgb(125,136,138)" stroke="#7d888a" stroke-width="2" stroke-linecap="round" stroke-linejoin="round" stroke-dasharray="0 0"/></g><g transform="translate(1262.6538461538464, -511.53597703987464) rotate(0, 23.5, 10)" width="47" height="20"><text text-decoration="none" x="0.5" fill="rgb(253, 246, 246)" font-size="10pt" font-family="lt_regular"  y="15">Amount</text><text text-decoration="none" x="46.5" fill="#4b4b4b" font-size="10pt" font-family="noto_regular"  y="15"></text></g></g><g id="KM0nWWwfNuZ"><g transform="translate(1210 -421.53597703987464)"><ellipse cx="46.1538461538464" cy="20.0000000000001" rx="46.1538461538464" ry="20.0000000000001" fill="rgb(125,136,138)" stroke="#7d888a" stroke-width="2" stroke-linecap="round" stroke-linejoin="round" stroke-dasharray="0 0"/></g><g transform="translate(1212.6538461538464, -411.5359770398745) rotate(0, 43.5, 10)" width="87" height="20"><text text-decoration="none" x="0.5" fill="rgb(253, 246, 246)" font-size="10pt" font-family="lt_regular"  y="15">Transaction_ID</text><text text-decoration="none" x="86.5" fill="#4b4b4b" font-size="10pt" font-family="noto_regular"  y="15"></text></g></g><g id="FrVhNzaD62M"><g transform="translate(1300 -300.00000000000006)"><rect x="0" y="0" width="120.00000000000009" height="60.00000000000004" fill="rgb(39,59,79)" stroke="#273b4f" stroke-width="2" stroke-linecap="round" stroke-linejoin="round" stroke-dasharray="0 0"/></g><g transform="translate(1326.5, -280) rotate(0, 33.5, 10)" width="67" height="20"><text text-decoration="none" x="0.5" fill="rgb(255, 255, 255)" font-size="10pt" font-family="lt_regular"  y="15">Transaction</text><text text-decoration="none" x="66.5" fill="#4b4b4b" font-size="10pt" font-family="noto_regular"  y="15"></text></g></g><g id="fhuT41k3xgB"><g transform="translate(1390 -421.53597703987464)"><ellipse cx="46.1538461538464" cy="20.0000000000001" rx="46.1538461538464" ry="20.0000000000001" fill="rgb(125,136,138)" stroke="#7d888a" stroke-width="2" stroke-linecap="round" stroke-linejoin="round" stroke-dasharray="0 0"/></g><g transform="translate(1391.1538461538464, -411.5359770398745) rotate(0, 45, 10)" width="90" height="20"><text text-decoration="none" x="0" fill="rgb(253, 246, 246)" font-size="10pt" font-family="lt_regular"  y="15">Receiver_Name</text><text text-decoration="none" x="90" fill="#4b4b4b" font-size="10pt" font-family="noto_regular"  y="15"></text></g></g><g id="pzJMm1Ux7NH"><g transform="translate(1380 -471.5359770398747)"><ellipse cx="62.5" cy="20.0000000000001" rx="62.5" ry="20.0000000000001" fill="rgb(125,136,138)" stroke="#7d888a" stroke-width="2" stroke-linecap="round" stroke-linejoin="round" stroke-dasharray="0 0"/></g><g transform="translate(1390, -461.53597703987464) rotate(0, 52.5, 10)" width="105" height="20"><text text-decoration="none" x="1" fill="rgb(253, 246, 246)" font-size="10pt" font-family="lt_regular"  y="15">Receiver_Account</text><text text-decoration="none" x="104" fill="#4b4b4b" font-size="10pt" font-family="noto_regular"  y="15"></text></g></g><g id="idDziwRK0U9"><g transform="translate(1360 -521.5359770398746)"><ellipse cx="61" cy="20.0000000000001" rx="61" ry="20.0000000000001" fill="rgb(125,136,138)" stroke="#7d888a" stroke-width="2" stroke-linecap="round" stroke-linejoin="round" stroke-dasharray="0 0"/></g><g transform="translate(1407, -511.5359770398745) rotate(0, 14, 10)" width="28" height="20"><text text-decoration="none" x="0" fill="rgb(253, 246, 246)" font-size="10pt" font-family="lt_regular"  y="15">Date</text><text text-decoration="none" x="28" fill="#4b4b4b" font-size="10pt" font-family="noto_regular"  y="15"></text></g></g><g id="LvRkzMQqG3D"><g><path d="M 1302,-402 L 1360,-300" fill="none" stroke="#7E7E7E" stroke-width="2" stroke-linecap="round" stroke-linejoin="round"/></g></g><g id="fOITTUQYjiI"><g><path d="M 1390,-402 L 1360,-300" fill="none" stroke="#7E7E7E" stroke-width="2" stroke-linecap="round" stroke-linejoin="round"/></g></g><g id="RJNEp0YN325"><g><path d="M 1313,-450 L 1360,-300" fill="none" stroke="#7E7E7E" stroke-width="2" stroke-linecap="round" stroke-linejoin="round"/></g></g><g id="3UQ5ngccUpz"><g><path d="M 1380,-452 L 1360,-300" fill="none" stroke="#7E7E7E" stroke-width="2" stroke-linecap="round" stroke-linejoin="round"/></g></g><g id="0Ie8rHFew8n"><g><path d="M 1360,-502 L 1360,-300" fill="none" stroke="#7E7E7E" stroke-width="2" stroke-linecap="round" stroke-linejoin="round"/></g></g><g id="vG8b7SQlKl2"><g><path d="M 1332,-502 L 1360,-300" fill="none" stroke="#7E7E7E" stroke-width="2" stroke-linecap="round" stroke-linejoin="round"/></g></g><g id="ef8dP4M3c9A"><mask id="87f60" x="1186" y="-284" width="128" height="28" maskUnits="userSpaceOnUse"><rect x="1186" y="-284" width="128" height="28" fill="white" /><rect x="1241" y="-283" width="18" height="26" fill="black" /></mask><g mask="url(#87f60)"><path d="M 1200,-270 L 1300,-270" fill="none" stroke="#7E7E7E" stroke-width="2" stroke-linecap="round" stroke-linejoin="round"/></g><g transform="translate(1244, -280)" width="12" height="20"><text text-decoration="none" x="0" fill="#4b4b4b" font-size="10pt" font-family="lt_regular"  y="15">M</text><text text-decoration="none" x="12" fill="#4b4b4b" font-size="10pt" font-family="noto_regular"  y="15"></text></g></g></svg>