<svg xmlns="http://www.w3.org/2000/svg" xmlns:svg="http://www.w3.org/2000/svg" xmlns:xlink="http://www.w3.org/1999/xlink" version="1.0" height="1100pt" width="1100.0000000000002pt" viewBox="145 -103 1108.0000000000002 1106" ><defs><style type="text/css">
            @font-face {
                font-family: 'lt_regular';
                src: url('https://app.creately.com/diagram/assets/fonts/lato/lt-regular-webfont.woff2') format('woff2'),
                    url('https://app.creately.com/diagram/assets/fonts/lato/lt-regular-webfont.woff') format('woff');
                font-weight: normal;
                font-style: normal;
            }
            @font-face {
                font-family: 'noto_regular';
                src: url('https://app.creately.com/diagram/assets/fonts/noto/noto-regular.woff') format('woff'),
                     url('https://app.creately.com/diagram/assets/fonts/noto/noto-regular.woff2') format('woff2');
                font-weight: normal;
                font-style: normal;
            }
        p {
            margin: 0;
        }
        </style></defs><defs><style>
            span{ display: inline-block; }
        </style></defs><g id="pqokdffSIPo"><g transform="translate(1000 0)"><rect x="0" y="0" width="100" height="50" fill="rgb(162,117,205)" stroke="#A275CD" stroke-width="2" stroke-linecap="round" stroke-linejoin="round" stroke-dasharray="0 0"/></g><g transform="translate(1020.545, 15) rotate(0, 29.455, 10)" width="58.91" height="20"><text text-decoration="none" x="0" fill="#ffffff" font-size="11pt" font-family="lt_regular"  y="17">Category</text><text text-decoration="none" x="60" fill="#4b4b4b" font-size="10pt" font-family="noto_regular"  y="17"></text></g></g><g id="5pynqdWE2sF"><g transform="translate(1000 -100)"><ellipse cx="50" cy="25" rx="50" ry="25" fill="rgb(245,215,110)" stroke="#F5D76E" stroke-width="2" stroke-linecap="round" stroke-linejoin="round" stroke-dasharray="0 0"/></g><g transform="translate(1012.72, -85) rotate(0, 37.28, 10)" width="74.56" height="20"><text text-decoration="underline" x="0" fill="#ffffff" font-size="11pt" font-family="lt_regular"  y="17">category_id</text><text text-decoration="none" x="76" fill="#4b4b4b" font-size="10pt" font-family="noto_regular"  y="17"></text></g></g><g id="9KUT28NaZAa"><g transform="translate(1119.9999999999995 -60.000000000000014)"><ellipse cx="50" cy="25" rx="50" ry="25" fill="rgb(245,215,110)" stroke="#F5D76E" stroke-width="2" stroke-linecap="round" stroke-linejoin="round" stroke-dasharray="0 0"/></g><g transform="translate(1120.9549999999995, -45.000000000000014) rotate(0, 49.045, 10)" width="98.09" height="20"><text text-decoration="none" x="0" fill="#ffffff" font-size="11pt" font-family="lt_regular"  y="17">category_name</text><text text-decoration="none" x="99" fill="#4b4b4b" font-size="10pt" font-family="noto_regular"  y="17"></text></g></g><g id="IAFBDRiPCDm"><g transform="translate(750 0)"><path d="M 99.99999999999999,25 L 49.99999999999999,50 L 0,25 L 49.99999999999999,0 L 99.99999999999999,25 L 99.99999999999999,25 Z" fill="rgb(173,204,216)" stroke="#adccd8" stroke-width="2" stroke-linecap="round" stroke-linejoin="round" stroke-dasharray="0 0"/></g><g transform="translate(789.09, 15) rotate(0, 10.91, 10)" width="21.82" height="20"><text text-decoration="none" x="0.41000000000000014" fill="#ffffff" font-size="11pt" font-family="lt_regular"  y="17">has</text><text text-decoration="none" x="21.41" fill="#4b4b4b" font-size="10pt" font-family="noto_regular"  y="17"></text></g></g><g id="yqDVj9R0B3m"><g transform="translate(999.9999999999999 149.99999999999997)"><path d="M 99.99999999999984,25.000000000000032 L 49.99999999999992,50.000000000000064 L 0,25.000000000000032 L 49.99999999999992,0 L 99.99999999999984,25.000000000000032 L 99.99999999999984,25.000000000000032 Z" fill="rgb(173,204,216)" stroke="#adccd8" stroke-width="2" stroke-linecap="round" stroke-linejoin="round" stroke-dasharray="0 0"/></g><g transform="translate(1039.0899999999997, 165) rotate(0, 10.91, 10)" width="21.82" height="20"><text text-decoration="none" x="0.41000000000000014" fill="#ffffff" font-size="11pt" font-family="lt_regular"  y="17">has</text><text text-decoration="none" x="21.41" fill="#4b4b4b" font-size="10pt" font-family="noto_regular"  y="17"></text></g></g><g id="UIqEHjcvvdK"><g transform="translate(999.9999999999999 299.9999999999999)"><rect x="0" y="0" width="100" height="50" fill="rgb(162,117,205)" stroke="#A275CD" stroke-width="2" stroke-linecap="round" stroke-linejoin="round" stroke-dasharray="0 0"/></g><g transform="translate(1021.285, 314.9999999999999) rotate(0, 28.715, 10)" width="57.43" height="20"><text text-decoration="none" x="0.21499999999999986" fill="#ffffff" font-size="11pt" font-family="lt_regular"  y="17">Products</text><text text-decoration="none" x="57.215" fill="#4b4b4b" font-size="10pt" font-family="noto_regular"  y="17"></text></g></g><g id="JRI9a9b6WcN"><g transform="translate(750 150.00000000000006)"><rect x="0" y="0" width="100" height="50" fill="rgb(162,117,205)" stroke="#A275CD" stroke-width="2" stroke-linecap="round" stroke-linejoin="round" stroke-dasharray="0 0"/></g><g transform="translate(769.905, 154.99500000000006) rotate(0, 30.095, 20.005)" width="60.19" height="40.01"><text text-decoration="none" x="8.094999999999999" fill="#ffffff" font-size="11pt" font-family="lt_regular"  y="16">Online&#160;</text><text text-decoration="none" x="0" fill="#ffffff" font-size="11pt" font-family="lt_regular"  y="38">Shopping</text><text text-decoration="none" x="61" fill="#4b4b4b" font-size="10pt" font-family="noto_regular"  y="38"></text></g></g><g id="3XDN41tfysO"><g transform="translate(499.99999999999955 199.99999999999997)"><path d="M 99.99999999999999,24.999999999999968 L 49.99999999999999,49.999999999999936 L 0,24.999999999999968 L 49.99999999999999,0 L 99.99999999999999,24.999999999999968 L 99.99999999999999,24.999999999999968 Z" fill="rgb(173,204,216)" stroke="#adccd8" stroke-width="2" stroke-linecap="round" stroke-linejoin="round" stroke-dasharray="0 0"/></g><g transform="translate(516.3999999999995, 214.99999999999994) rotate(0, 33.6, 10)" width="67.2" height="20"><text text-decoration="none" x="8.100000000000001" fill="#ffffff" font-size="11pt" font-family="lt_regular"  y="16">belongs&#160;</text><text text-decoration="none" x="26.6" fill="#ffffff" font-size="11pt" font-family="lt_regular"  y="38">to</text><text text-decoration="none" x="40.6" fill="#4b4b4b" font-size="10pt" font-family="noto_regular"  y="38"></text></g></g><g id="Vwdlmb4OjMQ"><g transform="translate(300 199.99999999999997)"><rect x="0" y="0" width="100" height="50" fill="rgb(162,117,205)" stroke="#A275CD" stroke-width="2" stroke-linecap="round" stroke-linejoin="round" stroke-dasharray="0 0"/></g><g transform="translate(318.49, 214.99999999999997) rotate(0, 31.51, 10)" width="63.02" height="20"><text text-decoration="none" x="0.010000000000001563" fill="#ffffff" font-size="11pt" font-family="lt_regular"  y="17">Customer</text><text text-decoration="none" x="63.010000000000005" fill="#4b4b4b" font-size="10pt" font-family="noto_regular"  y="17"></text></g></g><g id="gXi99aWA5dm"><g transform="translate(400 99.99999999999997)"><ellipse cx="50" cy="25" rx="50" ry="25" fill="rgb(245,215,110)" stroke="#F5D76E" stroke-width="2" stroke-linecap="round" stroke-linejoin="round" stroke-dasharray="0 0"/></g><g transform="translate(423.74, 114.99999999999997) rotate(0, 26.26, 10)" width="52.52" height="20"><text text-decoration="underline" x="0" fill="#ffffff" font-size="11pt" font-family="lt_regular"  y="17">email_id</text><text text-decoration="none" x="54" fill="#4b4b4b" font-size="10pt" font-family="noto_regular"  y="17"></text></g></g><g id="NX4WWuQ0NO1"><g transform="translate(290 99.99999999999997)"><ellipse cx="50" cy="25" rx="50" ry="25" fill="rgb(245,215,110)" stroke="#F5D76E" stroke-width="2" stroke-linecap="round" stroke-linejoin="round" stroke-dasharray="0 0"/></g><g transform="translate(315.265, 114.99999999999997) rotate(0, 24.735, 10)" width="49.47" height="20"><text text-decoration="none" x="0.7349999999999994" fill="#ffffff" font-size="11pt" font-family="lt_regular"  y="17">address</text><text text-decoration="none" x="48.735" fill="#4b4b4b" font-size="10pt" font-family="noto_regular"  y="17"></text></g></g><g id="fokOIgUCDz9"><g transform="translate(180.00000000000009 80)"><ellipse cx="50" cy="25" rx="50" ry="25" fill="rgb(245,215,110)" stroke="#F5D76E" stroke-width="2" stroke-linecap="round" stroke-linejoin="round" stroke-dasharray="0 0"/></g><g transform="translate(199.2250000000001, 95) rotate(0, 30.775, 10)" width="61.55" height="20"><text text-decoration="none" x="0.2749999999999986" fill="#ffffff" font-size="11pt" font-family="lt_regular"  y="17">password</text><text text-decoration="none" x="61.275" fill="#4b4b4b" font-size="10pt" font-family="noto_regular"  y="17"></text></g></g><g id="oipGmsklkQi"><g transform="translate(150.00000000000009 140)"><ellipse cx="50" cy="25" rx="50" ry="25" fill="rgb(245,215,110)" stroke="#F5D76E" stroke-width="2" stroke-linecap="round" stroke-linejoin="round" stroke-dasharray="0 0"/></g><g transform="translate(167.8300000000001, 155) rotate(0, 32.17, 10)" width="64.34" height="20"><text text-decoration="none" x="0.1700000000000017" fill="#ffffff" font-size="11pt" font-family="lt_regular"  y="17">last_name</text><text text-decoration="none" x="64.17" fill="#4b4b4b" font-size="10pt" font-family="noto_regular"  y="17"></text></g></g><g id="9lVWFaWcaTb"><g transform="translate(150.00000000000003 200.00000000000006)"><ellipse cx="50" cy="25" rx="50" ry="25" fill="rgb(245,215,110)" stroke="#F5D76E" stroke-width="2" stroke-linecap="round" stroke-linejoin="round" stroke-dasharray="0 0"/></g><g transform="translate(166.33500000000004, 215.00000000000006) rotate(0, 33.665, 10)" width="67.33" height="20"><text text-decoration="none" x="0.16499999999999915" fill="#ffffff" font-size="11pt" font-family="lt_regular"  y="17">first_name</text><text text-decoration="none" x="67.16499999999999" fill="#4b4b4b" font-size="10pt" font-family="noto_regular"  y="17"></text></g></g><g id="Py8qfIN0RNA"><g transform="translate(150.00000000000003 260)"><ellipse cx="50" cy="25" rx="50" ry="25" fill="rgb(245,215,110)" stroke="#F5D76E" stroke-width="2" stroke-linecap="round" stroke-linejoin="round" stroke-dasharray="0 0"/></g><g transform="translate(168.57000000000002, 275) rotate(0, 31.43, 10)" width="62.86" height="20"><text text-decoration="none" x="0.4299999999999997" fill="#ffffff" font-size="11pt" font-family="lt_regular"  y="17">username</text><text text-decoration="none" x="62.43" fill="#4b4b4b" font-size="10pt" font-family="noto_regular"  y="17"></text></g></g><g id="0gIgLSgN0p9"><g transform="translate(600.0000000000002 300.0000000000001)"><path d="M 99.99999999999987,24.999999999999982 L 49.999999999999936,49.999999999999964 L 0,24.999999999999982 L 49.999999999999936,0 L 99.99999999999987,24.999999999999982 L 99.99999999999987,24.999999999999982 Z" fill="rgb(173,204,216)" stroke="#adccd8" stroke-width="2" stroke-linecap="round" stroke-linejoin="round" stroke-dasharray="0 0"/></g><g transform="translate(634.8600000000002, 315.0000000000001) rotate(0, 15.14, 10)" width="30.28" height="20"><text text-decoration="none" x="0.14000000000000057" fill="#ffffff" font-size="11pt" font-family="lt_regular"  y="17">buys</text><text text-decoration="none" x="30.14" fill="#4b4b4b" font-size="10pt" font-family="noto_regular"  y="17"></text></g></g><g id="mn9C8IvkHOS"><g transform="translate(750 500)"><path d="M 100,25.00000000000003 L 50,50.00000000000006 L 0,25.00000000000003 L 50,0 L 100,25.00000000000003 L 100,25.00000000000003 Z" fill="rgb(173,204,216)" stroke="#adccd8" stroke-width="2" stroke-linecap="round" stroke-linejoin="round" stroke-dasharray="0 0"/></g><g transform="translate(771.505, 515) rotate(0, 28.495, 10)" width="56.99" height="20"><text text-decoration="none" x="8.995000000000001" fill="#ffffff" font-size="11pt" font-family="lt_regular"  y="16">added&#160;</text><text text-decoration="none" x="21.495" fill="#ffffff" font-size="11pt" font-family="lt_regular"  y="38">to</text><text text-decoration="none" x="35.495000000000005" fill="#4b4b4b" font-size="10pt" font-family="noto_regular"  y="38"></text></g></g><g id="ce5jcEjNkzP"><g transform="translate(1000 500)"><rect x="0" y="0" width="100" height="50" fill="rgb(162,117,205)" stroke="#A275CD" stroke-width="2" stroke-linecap="round" stroke-linejoin="round" stroke-dasharray="0 0"/></g><g transform="translate(1019.695, 515) rotate(0, 30.305, 10)" width="60.61" height="20"><text text-decoration="none" x="0.3049999999999997" fill="#ffffff" font-size="11pt" font-family="lt_regular"  y="17">Cart&#160;</text><text text-decoration="none" x="31.305" fill="#ffffff" font-size="11pt" font-family="lt_regular"  y="17">Item</text><text text-decoration="none" x="60.305" fill="#4b4b4b" font-size="10pt" font-family="noto_regular"  y="17"></text></g></g><g id="WVhJ2ShSoWp"><g transform="translate(299.9999999999999 500.00000000000006)"><path d="M 99.99999999999997,25.000000000000075 L 49.999999999999986,50.00000000000015 L 0,25.000000000000075 L 49.999999999999986,0 L 99.99999999999997,25.000000000000075 L 99.99999999999997,25.000000000000075 Z" fill="rgb(173,204,216)" stroke="#adccd8" stroke-width="2" stroke-linecap="round" stroke-linejoin="round" stroke-dasharray="0 0"/></g><g transform="translate(334.6899999999999, 515.0000000000001) rotate(0, 15.31, 10)" width="30.62" height="20"><text text-decoration="none" x="0" fill="#ffffff" font-size="11pt" font-family="lt_regular"  y="17">does</text><text text-decoration="none" x="31" fill="#4b4b4b" font-size="10pt" font-family="noto_regular"  y="17"></text></g></g><g id="OyJqpASDpeK"><g transform="translate(300.0000000000001 649.9999999999999)"><rect x="0" y="0" width="100" height="50" fill="rgb(162,117,205)" stroke="#A275CD" stroke-width="2" stroke-linecap="round" stroke-linejoin="round" stroke-dasharray="0 0"/></g><g transform="translate(321.5600000000001, 664.9999999999999) rotate(0, 28.44, 10)" width="56.88" height="20"><text text-decoration="none" x="0" fill="#ffffff" font-size="11pt" font-family="lt_regular"  y="17">Payment</text><text text-decoration="none" x="57" fill="#4b4b4b" font-size="10pt" font-family="noto_regular"  y="17"></text></g></g><g id="o1kCNQjYh5j"><g transform="translate(1100.0000000000005 219.99999999999997)"><ellipse cx="50" cy="25" rx="50" ry="25" fill="rgb(245,215,110)" stroke="#F5D76E" stroke-width="2" stroke-linecap="round" stroke-linejoin="round" stroke-dasharray="0 0"/></g><g transform="translate(1136.6600000000005, 235) rotate(0, 13.34, 10)" width="26.68" height="20"><text text-decoration="underline" x="0" fill="#ffffff" font-size="11pt" font-family="lt_regular"  y="17">p_id</text><text text-decoration="none" x="27" fill="#4b4b4b" font-size="10pt" font-family="noto_regular"  y="17"></text></g></g><g id="tXG8WYjXItx"><g transform="translate(1140.0000000000002 280)"><ellipse cx="50" cy="25" rx="50" ry="25" fill="rgb(245,215,110)" stroke="#F5D76E" stroke-width="2" stroke-linecap="round" stroke-linejoin="round" stroke-dasharray="0 0"/></g><g transform="translate(1166.6200000000001, 295) rotate(0, 23.38, 10)" width="46.76" height="20"><text text-decoration="none" x="0" fill="#ffffff" font-size="11pt" font-family="lt_regular"  y="17">p_price</text><text text-decoration="none" x="47" fill="#4b4b4b" font-size="10pt" font-family="noto_regular"  y="17"></text></g></g><g id="f9pkd3sts1J"><g transform="translate(1140.0000000000002 340)"><ellipse cx="50" cy="25" rx="50" ry="25" fill="rgb(245,215,110)" stroke="#F5D76E" stroke-width="2" stroke-linecap="round" stroke-linejoin="round" stroke-dasharray="0 0"/></g><g transform="translate(1164.8950000000002, 355) rotate(0, 25.105, 10)" width="50.21" height="20"><text text-decoration="none" x="0.10500000000000043" fill="#ffffff" font-size="11pt" font-family="lt_regular"  y="17">p_name</text><text text-decoration="none" x="50.105000000000004" fill="#4b4b4b" font-size="10pt" font-family="noto_regular"  y="17"></text></g></g><g id="0xjhZ1bPlDR"><g transform="translate(1120.0000000000002 400.0000000000001)"><ellipse cx="50" cy="25" rx="50" ry="25" fill="rgb(245,215,110)" stroke="#F5D76E" stroke-width="2" stroke-linecap="round" stroke-linejoin="round" stroke-dasharray="0 0"/></g><g transform="translate(1142.6350000000002, 415.0000000000001) rotate(0, 27.365, 10)" width="54.73" height="20"><text text-decoration="none" x="0" fill="#ffffff" font-size="11pt" font-family="lt_regular"  y="17">p_model</text><text text-decoration="none" x="56" fill="#4b4b4b" font-size="10pt" font-family="noto_regular"  y="17"></text></g></g><g id="OKoXKCo9J1N"><g transform="translate(1140 590)"><ellipse cx="50" cy="25" rx="50" ry="25" fill="rgb(245,215,110)" stroke="#F5D76E" stroke-width="2" stroke-linecap="round" stroke-linejoin="round" stroke-dasharray="0 0"/></g><g transform="translate(1168.335, 605) rotate(0, 21.665, 10)" width="43.33" height="20"><text text-decoration="underline" x="0.16499999999999915" fill="#ffffff" font-size="11pt" font-family="lt_regular"  y="17">cart_id</text><text text-decoration="none" x="43.165" fill="#4b4b4b" font-size="10pt" font-family="noto_regular"  y="17"></text></g></g><g id="H2RU52JyHop"><g transform="translate(1150.0000000000002 470)"><ellipse cx="50" cy="25" rx="50" ry="25" fill="rgb(245,215,110)" stroke="#F5D76E" stroke-width="2" stroke-linecap="round" stroke-linejoin="round" stroke-dasharray="0 0"/></g><g transform="translate(1173.2850000000003, 485) rotate(0, 26.715, 10)" width="53.43" height="20"><text text-decoration="none" x="0.21499999999999986" fill="#ffffff" font-size="11pt" font-family="lt_regular"  y="17">quantity</text><text text-decoration="none" x="53.215" fill="#4b4b4b" font-size="10pt" font-family="noto_regular"  y="17"></text></g></g><g id="zGPKFnSnxf6"><g transform="translate(1149.9999999999998 529.9999999999999)"><ellipse cx="50" cy="25" rx="50" ry="25" fill="rgb(245,215,110)" stroke="#F5D76E" stroke-width="2" stroke-linecap="round" stroke-linejoin="round" stroke-dasharray="0 0"/></g><g transform="translate(1168.3899999999999, 544.9999999999999) rotate(0, 31.61, 10)" width="63.22" height="20"><text text-decoration="none" x="0" fill="#ffffff" font-size="11pt" font-family="lt_regular"  y="17">total_cost</text><text text-decoration="none" x="64" fill="#4b4b4b" font-size="10pt" font-family="noto_regular"  y="17"></text></g></g><g id="jIceBwczILV"><g transform="translate(150 590.0000000000001)"><ellipse cx="50" cy="25" rx="50" ry="25" fill="rgb(245,215,110)" stroke="#F5D76E" stroke-width="2" stroke-linecap="round" stroke-linejoin="round" stroke-dasharray="0 0"/></g><g transform="translate(162.63, 605.0000000000001) rotate(0, 37.37, 10)" width="74.74" height="20"><text text-decoration="underline" x="0" fill="#ffffff" font-size="11pt" font-family="lt_regular"  y="17">payment_id</text><text text-decoration="none" x="75" fill="#4b4b4b" font-size="10pt" font-family="noto_regular"  y="17"></text></g></g><g id="GL5FsZlGr1y"><g transform="translate(150 649.9999999999999)"><ellipse cx="50" cy="25" rx="50" ry="25" fill="rgb(245,215,110)" stroke="#F5D76E" stroke-width="2" stroke-linecap="round" stroke-linejoin="round" stroke-dasharray="0 0"/></g><g transform="translate(175.365, 664.9999999999999) rotate(0, 24.635, 10)" width="49.27" height="20"><text text-decoration="none" x="0.13500000000000156" fill="#ffffff" font-size="11pt" font-family="lt_regular"  y="17">amount</text><text text-decoration="none" x="49.135000000000005" fill="#4b4b4b" font-size="10pt" font-family="noto_regular"  y="17"></text></g></g><g id="W2pmkF7tsVv"><g transform="translate(150 710)"><ellipse cx="50" cy="25" rx="50" ry="25" fill="rgb(245,215,110)" stroke="#F5D76E" stroke-width="2" stroke-linecap="round" stroke-linejoin="round" stroke-dasharray="0 0"/></g><g transform="translate(154.11, 725) rotate(0, 45.89, 10)" width="91.78" height="20"><text text-decoration="none" x="0" fill="#ffffff" font-size="11pt" font-family="lt_regular"  y="17">payment_type</text><text text-decoration="none" x="92" fill="#4b4b4b" font-size="10pt" font-family="noto_regular"  y="17"></text></g></g><g id="JuIUU0Nlgl4"><g><path d="M 1050,-50 L 1050,0" fill="none" stroke="#9A9A9A" stroke-width="2" stroke-linecap="round" stroke-linejoin="round"/></g></g><g id="a1tRy82LJeZ"><g><path d="M 1120,-35 L 1050,0" fill="none" stroke="#9A9A9A" stroke-width="2" stroke-linecap="round" stroke-linejoin="round"/></g></g><g id="xFfSDUjr3g2"><g><path d="M 850,25 L 1000,25" fill="none" stroke="#7E7E7E" stroke-width="2" stroke-linecap="round" stroke-linejoin="round"/></g></g><g id="osbFXiAbH4K"><g><path d="M 1050,50 L 1050,100 Q 1049.9999999999998,109.99999999999976 1049.9999999999998,109.99999999999999 L 1050,150" fill="none" stroke="#7E7E7E" stroke-width="2" stroke-linecap="round" stroke-linejoin="round"/></g></g><g id="5PoQMJTk3eT"><g><path d="M 1050,200 L 1049.9999999999998,239.99999999999994 Q 1049.9999999999998,240.00000000000017 1050,250 Q 1050,259.9999999999999 1050,259.99999999999994 L 1050,300" fill="none" stroke="#7E7E7E" stroke-width="2" stroke-linecap="round" stroke-linejoin="round"/></g></g><g id="tkaIecl4XF7"><g><path d="M 800,50 L 800,150" fill="none" stroke="#7E7E7E" stroke-width="2" stroke-linecap="round" stroke-linejoin="round"/></g></g><g id="lFfG5iMDUL5"><g><path d="M 800,200 L 800,214.99999999999994 Q 800,224.99999999999994 790,224.99999999999994 L 600,225" fill="none" stroke="#7E7E7E" stroke-width="2" stroke-linecap="round" stroke-linejoin="round"/></g></g><g id="cDjqz1e1Tv3"><g><path d="M 500,225 L 450,225 Q 440,224.99999999999997 439.9999999999998,224.99999999999997 L 400,225" fill="none" stroke="#7E7E7E" stroke-width="2" stroke-linecap="round" stroke-linejoin="round"/></g></g><g id="h8yGlk7QD9T"><g><path d="M 410,140 L 350,200" fill="none" stroke="#9A9A9A" stroke-width="2" stroke-linecap="round" stroke-linejoin="round"/></g></g><g id="UH7seGZzKbN"><g><path d="M 340,150 L 350,200" fill="none" stroke="#9A9A9A" stroke-width="2" stroke-linecap="round" stroke-linejoin="round"/></g></g><g id="mpfBfGoqdJJ"><g><path d="M 240,270 L 300,225" fill="none" stroke="#9A9A9A" stroke-width="2" stroke-linecap="round" stroke-linejoin="round"/></g></g><g id="qg9h6web05a"><g><path d="M 250,225 L 300,225" fill="none" stroke="#9A9A9A" stroke-width="2" stroke-linecap="round" stroke-linejoin="round"/></g></g><g id="rgSzQuT7thh"><g><path d="M 240,180 L 300,225" fill="none" stroke="#9A9A9A" stroke-width="2" stroke-linecap="round" stroke-linejoin="round"/></g></g><g id="WhvuqokcFy0"><g><path d="M 250,128 L 300,225" fill="none" stroke="#9A9A9A" stroke-width="2" stroke-linecap="round" stroke-linejoin="round"/></g></g><g id="vgpOIa3Yoe5"><g><path d="M 350,250 L 600,325" fill="none" stroke="#7E7E7E" stroke-width="2" stroke-linecap="round" stroke-linejoin="round"/></g></g><g id="D8MUnvdGL6c"><g><path d="M 700,325 L 840,325.0000000000001 Q 840.0000000000001,325.0000000000001 850,325 Q 859.9999999999999,324.9999999999999 860,324.9999999999999 L 1000,325" fill="none" stroke="#7E7E7E" stroke-width="2" stroke-linecap="round" stroke-linejoin="round"/></g></g><g id="bvkeGnFCWe1"><g><path d="M 1130,268 L 1100,325" fill="none" stroke="#9A9A9A" stroke-width="2" stroke-linecap="round" stroke-linejoin="round"/></g></g><g id="QuBX5jeMvvO"><g><path d="M 1140,305 L 1120,315 L 1100,325" fill="none" stroke="#9A9A9A" stroke-width="2" stroke-linecap="round" stroke-linejoin="round"/></g></g><g id="V75Uu9JM1AA"><g><path d="M 1150,350 L 1125,337 L 1100,325" fill="none" stroke="#9A9A9A" stroke-width="2" stroke-linecap="round" stroke-linejoin="round"/></g></g><g id="4zoce2dB91o"><g><path d="M 1130,410 L 1115,368 L 1100,325" fill="none" stroke="#9A9A9A" stroke-width="2" stroke-linecap="round" stroke-linejoin="round"/></g></g><g id="SUEivifI7ZP"><g><path d="M 350,250 L 350,365 Q 350,365 350,375 Q 349.9999999999999,384.9999999999999 349.9999999999999,385 L 350,500" fill="none" stroke="#7E7E7E" stroke-width="2" stroke-linecap="round" stroke-linejoin="round"/></g></g><g id="3az1xDREmEP"><g><path d="M 850,525 L 1000,525" fill="none" stroke="#7E7E7E" stroke-width="2" stroke-linecap="round" stroke-linejoin="round"/></g></g><g id="f8rDG69DU6R"><g><path d="M 800,500 L 800,434.99999999999994 Q 800,424.99999999999994 810,424.99999999999994 L 925,425 L 1040,424.99999999999994 Q 1050,424.99999999999994 1050,414.99999999999994 L 1050,350" fill="none" stroke="#7E7E7E" stroke-width="2" stroke-linecap="round" stroke-linejoin="round"/></g></g><g id="5Pc3NlZr8PT"><g><path d="M 1150,495 L 1125,510 L 1100,525" fill="none" stroke="#9A9A9A" stroke-width="2" stroke-linecap="round" stroke-linejoin="round"/></g></g><g id="EgtbyMLDDUF"><g><path d="M 1150,555 L 1125,540 L 1100,525" fill="none" stroke="#9A9A9A" stroke-width="2" stroke-linecap="round" stroke-linejoin="round"/></g></g><g id="1lxSVXYKVwC"><g><path d="M 1150,600 L 1125,563 L 1100,525" fill="none" stroke="#9A9A9A" stroke-width="2" stroke-linecap="round" stroke-linejoin="round"/></g></g><g id="hNd7LZczEL1"><g><path d="M 350,650 L 350.0000000000001,610 Q 350.0000000000001,609.9999999999999 350,600 Q 349.9999999999999,590.0000000000001 349.9999999999999,590 L 350,550" fill="none" stroke="#7E7E7E" stroke-width="2" stroke-linecap="round" stroke-linejoin="round"/></g></g><g id="EDQspRIqOag"><g><path d="M 240,630 L 270,653 L 300,675" fill="none" stroke="#9A9A9A" stroke-width="2" stroke-linecap="round" stroke-linejoin="round"/></g></g><g id="cwombdeAypi"><g><path d="M 250,675 L 300,675" fill="none" stroke="#9A9A9A" stroke-width="2" stroke-linecap="round" stroke-linejoin="round"/></g></g><g id="xqCpfiP9J4B"><g><path d="M 240,720 L 270,698 L 300,675" fill="none" stroke="#9A9A9A" stroke-width="2" stroke-linecap="round" stroke-linejoin="round"/></g></g><g id="N2MdmJjIaQj"><g transform="translate(299.9999999999999 800)"><path d="M 99.99999999999997,25.00000000000003 L 49.999999999999986,50.00000000000006 L 0,25.00000000000003 L 49.999999999999986,0 L 99.99999999999997,25.00000000000003 L 99.99999999999997,25.00000000000003 Z" fill="rgb(173,204,216)" stroke="#adccd8" stroke-width="2" stroke-linecap="round" stroke-linejoin="round" stroke-dasharray="0 0"/></g><g transform="translate(322.5049999999999, 815) rotate(0, 27.495, 10)" width="54.99" height="20"><text text-decoration="none" x="10.995000000000001" fill="#ffffff" font-size="11pt" font-family="lt_regular"  y="16">done&#160;</text><text text-decoration="none" x="17.995" fill="#ffffff" font-size="11pt" font-family="lt_regular"  y="38">for</text><text text-decoration="none" x="36.995000000000005" fill="#4b4b4b" font-size="10pt" font-family="noto_regular"  y="38"></text></g></g><g id="nXl0PjkijH1"><g transform="translate(300 950)"><rect x="0" y="0" width="100" height="50" fill="rgb(162,117,205)" stroke="#A275CD" stroke-width="2" stroke-linecap="round" stroke-linejoin="round" stroke-dasharray="0 0"/></g><g transform="translate(336.16, 965) rotate(0, 13.84, 10)" width="27.68" height="20"><text text-decoration="none" x="0.33999999999999986" fill="#ffffff" font-size="11pt" font-family="lt_regular"  y="17">Cart</text><text text-decoration="none" x="27.34" fill="#4b4b4b" font-size="10pt" font-family="noto_regular"  y="17"></text></g></g><g id="xLb2muOZc32"><g><path d="M 350,800 L 349.9999999999999,760 Q 349.9999999999999,759.9999999999999 350,750 Q 350.0000000000001,740.0000000000001 350.0000000000001,740 L 350,700" fill="none" stroke="#7E7E7E" stroke-width="2" stroke-linecap="round" stroke-linejoin="round"/></g></g><g id="MS4ek0NED2r"><g><path d="M 350,950 L 350,910 Q 350,910 350,900 Q 349.9999999999999,890.0000000000001 349.9999999999999,890 L 350,850" fill="none" stroke="#7E7E7E" stroke-width="2" stroke-linecap="round" stroke-linejoin="round"/></g></g><g id="4zWEiOhdMVC"><g transform="translate(750 950)"><path d="M 99.99999999999997,24.999999999999947 L 49.999999999999986,49.99999999999989 L 0,24.999999999999947 L 49.999999999999986,0 L 99.99999999999997,24.999999999999947 L 99.99999999999997,24.999999999999947 Z" fill="rgb(173,204,216)" stroke="#adccd8" stroke-width="2" stroke-linecap="round" stroke-linejoin="round" stroke-dasharray="0 0"/></g><g transform="translate(773.745, 965) rotate(0, 26.255, 10)" width="52.51" height="20"><text text-decoration="none" x="8.754999999999999" fill="#ffffff" font-size="11pt" font-family="lt_regular"  y="16">made&#160;</text><text text-decoration="none" x="19.255" fill="#ffffff" font-size="11pt" font-family="lt_regular"  y="38">of</text><text text-decoration="none" x="33.254999999999995" fill="#4b4b4b" font-size="10pt" font-family="noto_regular"  y="38"></text></g></g><g id="0AxFeIhvkYc"><g><path d="M 400,975 L 750,975" fill="none" stroke="#7E7E7E" stroke-width="2" stroke-linecap="round" stroke-linejoin="round"/></g></g><g id="VFG5skKWH9z"><g><path d="M 850,975 L 1040,975 Q 1050,975 1050,965 L 1050,550" fill="none" stroke="#7E7E7E" stroke-width="2" stroke-linecap="round" stroke-linejoin="round"/></g></g></svg>