<svg xmlns="http://www.w3.org/2000/svg" xmlns:svg="http://www.w3.org/2000/svg" xmlns:xlink="http://www.w3.org/1999/xlink" version="1.0" height="1940pt" width="1750pt" viewBox="-155.0000000000001 -103.00000000000001 1758 1946" ><defs><style type="text/css">
            @font-face {
                font-family: 'lt_regular';
                src: url('https://app.creately.com/diagram/assets/fonts/lato/lt-regular-webfont.woff2') format('woff2'),
                    url('https://app.creately.com/diagram/assets/fonts/lato/lt-regular-webfont.woff') format('woff');
                font-weight: normal;
                font-style: normal;
            }
            @font-face {
                font-family: 'noto_regular';
                src: url('https://app.creately.com/diagram/assets/fonts/noto/noto-regular.woff') format('woff'),
                     url('https://app.creately.com/diagram/assets/fonts/noto/noto-regular.woff2') format('woff2');
                font-weight: normal;
                font-style: normal;
            }
        p {
            margin: 0;
        }
        </style></defs><defs><style>
            span{ display: inline-block; }
        </style></defs><g id="GxebAGZMQ4k"><g transform="translate(160 149.99999999999994)"><rect x="0" y="0" width="100" height="60" fill="rgb(240,82,84)" stroke="#f05254" stroke-width="2" stroke-linecap="round" stroke-linejoin="round" stroke-dasharray="0 0"/></g><g transform="translate(193, 170.49999999999994) rotate(0, 17, 9.5)" width="34" height="19"><text text-decoration="none" x="0" fill="#ffffff" font-size="10pt" font-family="lt_regular"  y="15">Entity</text><text text-decoration="none" x="35" fill="#4b4b4b" font-size="10pt" font-family="noto_regular"  y="15"></text></g></g><g id="ZE63qyZVuCL"><g transform="translate(60 -80)"><ellipse cx="45.000000000000014" cy="20.000000000000004" rx="45.000000000000014" ry="20.000000000000004" fill="rgb(0,174,181)" stroke="#00aeb5" stroke-width="2" stroke-linecap="round" stroke-linejoin="round" stroke-dasharray="0 0"/></g><g transform="translate(92.00000000000001, -69.5) rotate(0, 13, 9.5)" width="26" height="19"><text text-decoration="none" x="0" fill="#ffffff" font-size="10pt" font-family="lt_regular"  y="15">AGE</text><text text-decoration="none" x="27" fill="#4b4b4b" font-size="10pt" font-family="noto_regular"  y="15"></text></g></g><g id="orjYgEuVdHH"><g transform="translate(180 -80)"><ellipse cx="50" cy="20.000000000000004" rx="50" ry="20.000000000000004" fill="rgb(0,174,181)" stroke="#00aeb5" stroke-width="2" stroke-linecap="round" stroke-linejoin="round" stroke-dasharray="0 0"/></g><g transform="translate(210.5, -78) rotate(0, 19.5, 18)" width="39" height="36"><text text-decoration="none" x="0" fill="#ffffff" font-size="10pt" font-family="lt_regular"  y="14">NAME</text><text text-decoration="none" x="39" fill="#ffffff" font-size="10pt" font-family="lt_regular"  y="14"></text><text text-decoration="none" x="19.5" fill="#4b4b4b" font-size="10pt" font-family="noto_regular"  y="33"></text></g></g><g id="KD9OLEUbjEz"><g transform="translate(-20 0)"><ellipse cx="50" cy="20.000000000000004" rx="50" ry="20.000000000000004" fill="rgb(0,174,181)" stroke="#00aeb5" stroke-width="2" stroke-linecap="round" stroke-linejoin="round" stroke-dasharray="0 0"/></g><g transform="translate(18, 10.500000000000004) rotate(0, 12, 9.5)" width="24" height="19"><text text-decoration="none" x="0.5" fill="#ffffff" font-size="10pt" font-family="lt_regular"  y="15">SEX</text><text text-decoration="none" x="23.5" fill="#4b4b4b" font-size="10pt" font-family="noto_regular"  y="15"></text></g></g><g id="aDiDqmWLcIt"><g transform="translate(270 -30)"><ellipse cx="50" cy="20.000000000000004" rx="50" ry="20.000000000000004" fill="rgb(0,174,181)" stroke="#00aeb5" stroke-width="2" stroke-linecap="round" stroke-linejoin="round" stroke-dasharray="0 0"/></g><g transform="translate(285, -19.499999999999996) rotate(0, 35, 9.5)" width="70" height="19"><text text-decoration="underline" x="1" fill="#ffffff" font-size="10pt" font-family="lt_regular"  y="15">DONOR_ID</text><text text-decoration="none" x="69" fill="#4b4b4b" font-size="10pt" font-family="noto_regular"  y="15"></text></g></g><g id="6mJmhTFBGsj"><g transform="translate(-120 100)"><ellipse cx="77.5" cy="20.000000000000004" rx="77.5" ry="20.000000000000004" fill="rgb(0,174,181)" stroke="#00aeb5" stroke-width="2" stroke-linecap="round" stroke-linejoin="round" stroke-dasharray="0 0"/></g><g transform="translate(-110, 110.5) rotate(0, 67.5, 9.5)" width="135" height="19"><text text-decoration="none" x="0" fill="#ffffff" font-size="10pt" font-family="lt_regular"  y="15">DATE_OF_DONATION</text><text text-decoration="none" x="135" fill="#4b4b4b" font-size="10pt" font-family="noto_regular"  y="15"></text></g></g><g id="YaTw587xyHL"><g transform="translate(-99.99999999999989 180)"><ellipse cx="50" cy="20" rx="50" ry="20" fill="rgb(0,174,181)" stroke="#00aeb5" stroke-width="2" stroke-linecap="round" stroke-linejoin="round" stroke-dasharray="0 0"/></g><g transform="translate(-79.99999999999989, 190.5) rotate(0, 30, 9.5)" width="60" height="19"><text text-decoration="none" x="0.5" fill="#ffffff" font-size="10pt" font-family="lt_regular"  y="15">ADDRESS</text><text text-decoration="none" x="59.5" fill="#4b4b4b" font-size="10pt" font-family="noto_regular"  y="15"></text></g></g><g id="iMdw5RviBJe"><g transform="translate(-70.00000000000011 260.00000000000006)"><ellipse cx="55" cy="27.5" rx="55" ry="27.5" fill="rgb(0,174,181)" stroke="#00aeb5" stroke-width="2" stroke-linecap="round" stroke-linejoin="round" stroke-dasharray="0 0"/><ellipse cx="55" cy="27.5" rx="50" ry="22.5" fill="rgb(0,174,181)" stroke="#00aeb5" stroke-width="2" stroke-linecap="round" stroke-linejoin="round" stroke-dasharray="0 0"/></g><g transform="translate(-52.000000000000114, 278.00000000000006) rotate(0, 37, 9.5)" width="74" height="19"><text text-decoration="none" x="1" fill="#ffffff" font-size="10pt" font-family="lt_regular"  y="15">PHONE_NO</text><text text-decoration="none" x="73" fill="#4b4b4b" font-size="10pt" font-family="noto_regular"  y="15"></text></g></g><g id="VhSzDlhCKcC"><g transform="translate(280 50)"><ellipse cx="50" cy="25" rx="50" ry="25" fill="rgb(0,174,181)" stroke="#00aeb5" stroke-width="2" stroke-linecap="round" stroke-linejoin="round" stroke-dasharray="0 0"/></g><g transform="translate(288, 65.5) rotate(0, 42, 9.5)" width="84" height="19"><text text-decoration="none" x="0.5" fill="#ffffff" font-size="10pt" font-family="lt_regular"  y="15">BLOOD_TYPE</text><text text-decoration="none" x="83.5" fill="#4b4b4b" font-size="10pt" font-family="noto_regular"  y="15"></text></g></g><g id="npg5zdoc7Ip"><g><path d="M 290,90 L 210,150" fill="none" stroke="#A8A8A8" stroke-width="2" stroke-linecap="round" stroke-linejoin="round"/></g></g><g id="RQcOv5hNCEp"><g><path d="M 280,2 L 210,150" fill="none" stroke="#A8A8A8" stroke-width="2" stroke-linecap="round" stroke-linejoin="round"/></g></g><g id="JQVYDtAX7o3"><g><path d="M 230,-40 L 210,150" fill="none" stroke="#A8A8A8" stroke-width="2" stroke-linecap="round" stroke-linejoin="round"/></g></g><g id="FkqIeZvb0mk"><g><path d="M 141,-48 L 210,150" fill="none" stroke="#A8A8A8" stroke-width="2" stroke-linecap="round" stroke-linejoin="round"/></g></g><g id="f8ewMVIg7DZ"><g><path d="M 70,32 L 210,150" fill="none" stroke="#A8A8A8" stroke-width="2" stroke-linecap="round" stroke-linejoin="round"/></g></g><g id="pzVgNeIhmua"><g><path d="M 35,120 L 160,180" fill="none" stroke="#A8A8A8" stroke-width="2" stroke-linecap="round" stroke-linejoin="round"/></g></g><g id="auZlzo8eVfI"><g><path d="M 0,200 L 80,190 L 160,180" fill="none" stroke="#A8A8A8" stroke-width="2" stroke-linecap="round" stroke-linejoin="round"/></g></g><g id="7OeymptPqcW"><g><path d="M 20,270 L 90,225 L 160,180" fill="none" stroke="#A8A8A8" stroke-width="2" stroke-linecap="round" stroke-linejoin="round"/></g></g><g id="EOPpwEzCd1o"><g transform="translate(130.0000000000001 469.99999999999994)"><path d="M 159.99999999999997,65.00000000000003 L 79.99999999999999,130.00000000000006 L 0,65.00000000000003 L 79.99999999999999,0 L 159.99999999999997,65.00000000000003 L 159.99999999999997,65.00000000000003 Z" fill="rgb(254,218,30)" stroke="#feda1e" stroke-width="2" stroke-linecap="round" stroke-linejoin="round" stroke-dasharray="0 0"/></g><g transform="translate(176.0000000000001, 525.5) rotate(0, 34, 9.5)" width="68" height="19"><text text-decoration="none" x="0" fill="#ffffff" font-size="10pt" font-family="lt_regular"  y="15">REGISTERS</text><text text-decoration="none" x="68" fill="#4b4b4b" font-size="10pt" font-family="noto_regular"  y="15"></text></g></g><g id="k4pCc2N0Aqs"><g transform="translate(160.00000000000023 869.9999999999999)"><rect x="0" y="0" width="189.9999999999996" height="60.00000000000013" fill="rgb(240,82,84)" stroke="#f05254" stroke-width="2" stroke-linecap="round" stroke-linejoin="round" stroke-dasharray="0 0"/></g><g transform="translate(236.00000000000003, 890.5) rotate(0, 19, 9.5)" width="38" height="19"><text text-decoration="none" x="0" fill="#ffffff" font-size="10pt" font-family="lt_regular"  y="15">STAFF</text><text text-decoration="none" x="38" fill="#4b4b4b" font-size="10pt" font-family="noto_regular"  y="15"></text></g></g><g id="JuRROjP4oyv"><g transform="translate(-70.00000000000011 670)"><ellipse cx="49.99999999999994" cy="24.99999999999997" rx="49.99999999999994" ry="24.99999999999997" fill="rgb(0,174,181)" stroke="#00aeb5" stroke-width="2" stroke-linecap="round" stroke-linejoin="round" stroke-dasharray="0 0"/></g><g transform="translate(-39.50000000000017, 677) rotate(0, 19.5, 18)" width="39" height="36"><text text-decoration="none" x="0" fill="#ffffff" font-size="10pt" font-family="lt_regular"  y="14">NAME</text><text text-decoration="none" x="39" fill="#ffffff" font-size="10pt" font-family="lt_regular"  y="14"></text><text text-decoration="none" x="19.5" fill="#4b4b4b" font-size="10pt" font-family="noto_regular"  y="33"></text></g></g><g id="eSBXMie8w8n"><g transform="translate(-120.00000000000011 730)"><ellipse cx="49.99999999999994" cy="24.99999999999997" rx="49.99999999999994" ry="24.99999999999997" fill="rgb(0,174,181)" stroke="#00aeb5" stroke-width="2" stroke-linecap="round" stroke-linejoin="round" stroke-dasharray="0 0"/></g><g transform="translate(-94.00000000000017, 745.5) rotate(0, 24, 9.5)" width="48" height="19"><text text-decoration="none" x="0" fill="#ffffff" font-size="10pt" font-family="lt_regular"  y="15">EMP_ID</text><text text-decoration="none" x="48" fill="#4b4b4b" font-size="10pt" font-family="noto_regular"  y="15"></text></g></g><g id="tUueRt95OWw"><g transform="translate(-120 810)"><ellipse cx="50" cy="25" rx="50" ry="25" fill="rgb(0,174,181)" stroke="#00aeb5" stroke-width="2" stroke-linecap="round" stroke-linejoin="round" stroke-dasharray="0 0"/></g><g transform="translate(-100, 825.5) rotate(0, 30, 9.5)" width="60" height="19"><text text-decoration="none" x="0.5" fill="#ffffff" font-size="10pt" font-family="lt_regular"  y="15">ADDRESS</text><text text-decoration="none" x="59.5" fill="#4b4b4b" font-size="10pt" font-family="noto_regular"  y="15"></text></g></g><g id="jfW792iXM29"><g transform="translate(-150.0000000000001 880)"><ellipse cx="54.999999999999936" cy="27.499999999999968" rx="54.999999999999936" ry="27.499999999999968" fill="rgb(0,174,181)" stroke="#00aeb5" stroke-width="2" stroke-linecap="round" stroke-linejoin="round" stroke-dasharray="0 0"/><ellipse cx="54.999999999999936" cy="27.499999999999968" rx="49.999999999999936" ry="22.499999999999968" fill="rgb(0,174,181)" stroke="#00aeb5" stroke-width="2" stroke-linecap="round" stroke-linejoin="round" stroke-dasharray="0 0"/></g><g transform="translate(-132.00000000000017, 898) rotate(0, 37, 9.5)" width="74" height="19"><text text-decoration="none" x="1" fill="#ffffff" font-size="10pt" font-family="lt_regular"  y="15">PHONE_NO</text><text text-decoration="none" x="73" fill="#4b4b4b" font-size="10pt" font-family="noto_regular"  y="15"></text></g></g><g id="c1sRHrJie0Q"><g transform="translate(-120.00000000000011 960)"><ellipse cx="49.99999999999994" cy="24.99999999999997" rx="49.99999999999994" ry="24.99999999999997" fill="rgb(0,174,181)" stroke="#00aeb5" stroke-width="2" stroke-linecap="round" stroke-linejoin="round" stroke-dasharray="0 0"/></g><g transform="translate(-94.00000000000017, 975.5) rotate(0, 24, 9.5)" width="48" height="19"><text text-decoration="none" x="0" fill="#ffffff" font-size="10pt" font-family="lt_regular"  y="15">SALARY</text><text text-decoration="none" x="48" fill="#4b4b4b" font-size="10pt" font-family="noto_regular"  y="15"></text></g></g><g id="RQFNhYvGbPI"><g transform="translate(-40.000000000000114 1020)"><ellipse cx="70.49999999999996" cy="24.99999999999997" rx="70.49999999999996" ry="24.99999999999997" fill="rgb(0,174,181)" stroke="#00aeb5" stroke-width="2" stroke-linecap="round" stroke-linejoin="round" stroke-dasharray="0 0"/></g><g transform="translate(-30.000000000000156, 1035.5) rotate(0, 60.5, 9.5)" width="121" height="19"><text text-decoration="none" x="0.5" fill="#ffffff" font-size="10pt" font-family="lt_regular"  y="15">EMP_DESCRIPTION</text><text text-decoration="none" x="120.5" fill="#4b4b4b" font-size="10pt" font-family="noto_regular"  y="15"></text></g></g><g id="VkpBtWkzhkt"><g><path d="M 20,710 L 160,900" fill="none" stroke="#A8A8A8" stroke-width="2" stroke-linecap="round" stroke-linejoin="round"/></g></g><g id="jbVYQVBNNfa"><g><path d="M -30,770 L 160,900" fill="none" stroke="#A8A8A8" stroke-width="2" stroke-linecap="round" stroke-linejoin="round"/></g></g><g id="MNm0snrk1Hb"><g><path d="M -20,835 L 160,900" fill="none" stroke="#A8A8A8" stroke-width="2" stroke-linecap="round" stroke-linejoin="round"/></g></g><g id="C88SZSwh1oo"><g><path d="M -50,905 L 160,900" fill="none" stroke="#A8A8A8" stroke-width="2" stroke-linecap="round" stroke-linejoin="round"/></g></g><g id="ghvGaDPdfrs"><g><path d="M -20,985 L 160,900" fill="none" stroke="#A8A8A8" stroke-width="2" stroke-linecap="round" stroke-linejoin="round"/></g></g><g id="U2v3TB8xtTq"><g><path d="M 87,1030 L 160,900" fill="none" stroke="#A8A8A8" stroke-width="2" stroke-linecap="round" stroke-linejoin="round"/></g></g><g id="wouucmvp3pC"><g transform="translate(180 1260)"><path d="M 179.99999999999957,50.00000000000002 L 89.99999999999979,100.00000000000004 L 0,50.00000000000002 L 89.99999999999979,0 L 179.99999999999957,50.00000000000002 L 179.99999999999957,50.00000000000002 Z" fill="rgb(254,218,30)" stroke="#feda1e" stroke-width="2" stroke-linecap="round" stroke-linejoin="round" stroke-dasharray="0 0"/></g><g transform="translate(237.49999999999977, 1300.5) rotate(0, 32.5, 9.5)" width="65" height="19"><text text-decoration="none" x="0" fill="#ffffff" font-size="10pt" font-family="lt_regular"  y="15">MANAGES</text><text text-decoration="none" x="65" fill="#4b4b4b" font-size="10pt" font-family="noto_regular"  y="15"></text></g></g><g id="EcOdDLXTa97"><g transform="translate(189.99999999999977 1640)"><rect x="0" y="0" width="199.99999999999946" height="60.0000000000002" fill="rgb(240,82,84)" stroke="#f05254" stroke-width="2" stroke-linecap="round" stroke-linejoin="round" stroke-dasharray="0 0"/></g><g transform="translate(227.9999999999995, 1652) rotate(0, 62, 18)" width="124" height="36"><text text-decoration="none" x="0.5" fill="#ffffff" font-size="10pt" font-family="lt_regular"  y="14">BLOOD&#160;</text><text text-decoration="none" x="48.5" fill="#ffffff" font-size="10pt" font-family="lt_regular"  y="14">INVENTORY</text><text text-decoration="none" x="123.5" fill="#ffffff" font-size="10pt" font-family="lt_regular"  y="14"></text><text text-decoration="none" x="62" fill="#4b4b4b" font-size="10pt" font-family="noto_regular"  y="33"></text></g></g><g id="bZc81Qlmr1U"><g transform="translate(-80.00000000000023 1540)"><ellipse cx="49.999999999999986" cy="24.999999999999993" rx="49.999999999999986" ry="24.999999999999993" fill="rgb(0,174,181)" stroke="#00aeb5" stroke-width="2" stroke-linecap="round" stroke-linejoin="round" stroke-dasharray="0 0"/></g><g transform="translate(-73.00000000000024, 1555.5) rotate(0, 43, 9.5)" width="86" height="19"><text text-decoration="none" x="0" fill="#ffffff" font-size="10pt" font-family="lt_regular"  y="15">DESCRIPTION</text><text text-decoration="none" x="86" fill="#4b4b4b" font-size="10pt" font-family="noto_regular"  y="15"></text></g></g><g id="xRwDzZ4mCdk"><g transform="translate(-120.00000000000023 1660)"><ellipse cx="49.999999999999986" cy="24.999999999999993" rx="49.999999999999986" ry="24.999999999999993" fill="rgb(0,174,181)" stroke="#00aeb5" stroke-width="2" stroke-linecap="round" stroke-linejoin="round" stroke-dasharray="0 0"/></g><g transform="translate(-96.00000000000024, 1675.5) rotate(0, 26, 9.5)" width="52" height="19"><text text-decoration="none" x="0.5" fill="#ffffff" font-size="10pt" font-family="lt_regular"  y="15">ORDERS</text><text text-decoration="none" x="51.5" fill="#4b4b4b" font-size="10pt" font-family="noto_regular"  y="15"></text></g></g><g id="hBRntaM4ed8"><g transform="translate(-60.00000000000023 1790)"><ellipse cx="49.999999999999986" cy="24.999999999999993" rx="49.999999999999986" ry="24.999999999999993" fill="rgb(0,174,181)" stroke="#00aeb5" stroke-width="2" stroke-linecap="round" stroke-linejoin="round" stroke-dasharray="0 0"/></g><g transform="translate(-43.50000000000024, 1805.5) rotate(0, 33.5, 9.5)" width="67" height="19"><text text-decoration="none" x="0" fill="#ffffff" font-size="10pt" font-family="lt_regular"  y="15">QUANTITY</text><text text-decoration="none" x="67" fill="#4b4b4b" font-size="10pt" font-family="noto_regular"  y="15"></text></g></g><g id="zGS3qxBPoh1"><g><path d="M 20,1565 L 190,1670" fill="none" stroke="#7E7E7E" stroke-width="2" stroke-linecap="round" stroke-linejoin="round"/></g></g><g id="EBxK6cnuSfq"><g><path d="M -20,1685 L 190,1670" fill="none" stroke="#7E7E7E" stroke-width="2" stroke-linecap="round" stroke-linejoin="round"/></g></g><g id="VIanBNKY6gR"><g><path d="M 30,1800 L 190,1670" fill="none" stroke="#7E7E7E" stroke-width="2" stroke-linecap="round" stroke-linejoin="round"/></g></g><g id="H557witXeOg"><g transform="translate(450 1460)"><ellipse cx="78.5" cy="24.99999999999997" rx="78.5" ry="24.99999999999997" fill="rgb(0,174,181)" stroke="#00aeb5" stroke-width="2" stroke-linecap="round" stroke-linejoin="round" stroke-dasharray="0 0"/></g><g transform="translate(460, 1475.5) rotate(0, 68.5, 9.5)" width="137" height="19"><text text-decoration="underline" x="1.5" fill="#ffffff" font-size="10pt" font-family="lt_regular"  y="15">BLOODBAG_NUMBER</text><text text-decoration="none" x="135.5" fill="#4b4b4b" font-size="10pt" font-family="noto_regular"  y="15"></text></g></g><g id="QCTu6jegg9K"><g transform="translate(550 1660)"><ellipse cx="69.99999999999974" cy="30.000000000000032" rx="69.99999999999974" ry="30.000000000000032" fill="rgb(0,174,181)" stroke="#00aeb5" stroke-width="2" stroke-linecap="round" stroke-linejoin="round" stroke-dasharray="0 0"/></g><g transform="translate(577.9999999999998, 1680.5) rotate(0, 42, 9.5)" width="84" height="19"><text text-decoration="underline" x="0.5" fill="#ffffff" font-size="10pt" font-family="lt_regular"  y="15">BLOOD_TYPE</text><text text-decoration="none" x="83.5" fill="#4b4b4b" font-size="10pt" font-family="noto_regular"  y="15"></text></g></g><g id="ccdysPWg6sl"><g><path d="M 466,1500 L 390,1670" fill="none" stroke="#00aeb5" stroke-width="2" stroke-linecap="round" stroke-linejoin="round" stroke-dasharray="0 0"/></g></g><g id="xsbhDmBEleZ"><g><path d="M 550,1690 L 390,1670" fill="none" stroke="#00aeb5" stroke-width="2" stroke-linecap="round" stroke-linejoin="round" stroke-dasharray="0 0"/></g></g><g id="3w4FQjR3R4f"><mask id="16b7d" x="196" y="586" width="73" height="298" maskUnits="userSpaceOnUse"><rect x="196" y="586" width="73" height="298" fill="white" /><rect x="224.5" y="722.5" width="16" height="25" fill="black" /></mask><g mask="url(#16b7d)"><path d="M 210,600 L 255,870" fill="none" stroke="#A8A8A8" stroke-width="2" stroke-linecap="round" stroke-linejoin="round"/></g><g transform="translate(227.5, 725.5)" width="10" height="19"><text text-decoration="none" x="0" fill="#4b4b4b" font-size="10pt" font-family="lt_regular"  y="15">N</text><text text-decoration="none" x="10" fill="#4b4b4b" font-size="10pt" font-family="noto_regular"  y="15"></text></g></g><g id="9B2tnbbM6Zb"><g transform="translate(640 150)"><path d="M 119.99999999999997,34.99999999999999 L 59.999999999999986,69.99999999999999 L 0,34.99999999999999 L 59.999999999999986,0 L 119.99999999999997,34.99999999999999 L 119.99999999999997,34.99999999999999 Z" fill="rgb(254,218,30)" stroke="#feda1e" stroke-width="2" stroke-linecap="round" stroke-linejoin="round" stroke-dasharray="0 0"/></g><g transform="translate(669, 175.5) rotate(0, 31, 9.5)" width="62" height="19"><text text-decoration="none" x="0" fill="#ffffff" font-size="10pt" font-family="lt_regular"  y="15">DONATES</text><text text-decoration="none" x="62" fill="#4b4b4b" font-size="10pt" font-family="noto_regular"  y="15"></text></g></g><g id="pxGMQgLbqyt"><g transform="translate(700 850)"><path d="M 119.99999999999991,34.99999999999998 L 59.99999999999996,69.99999999999996 L 0,34.99999999999998 L 59.99999999999996,0 L 119.99999999999991,34.99999999999998 L 119.99999999999991,34.99999999999998 Z" fill="rgb(254,218,30)" stroke="#feda1e" stroke-width="2" stroke-linecap="round" stroke-linejoin="round" stroke-dasharray="0 0"/></g><g transform="translate(721.5, 875.5) rotate(0, 38.5, 9.5)" width="77" height="19"><text text-decoration="none" x="0" fill="#ffffff" font-size="10pt" font-family="lt_regular"  y="15">vINTERACTS</text><text text-decoration="none" x="78" fill="#4b4b4b" font-size="10pt" font-family="noto_regular"  y="15"></text></g></g><g id="E6DszczmmdF"><mask id="7d735" x="336" y="871" width="378" height="43" maskUnits="userSpaceOnUse"><rect x="336" y="871" width="378" height="43" fill="white" /><rect x="533.0872188745923" y="879.2676906196604" width="18" height="25" fill="black" /></mask><g mask="url(#7d735)"><path d="M 700,885 L 350,900" fill="none" stroke="#A8A8A8" stroke-width="2" stroke-linecap="round" stroke-linejoin="round"/></g><g transform="translate(536.0872188745923, 882.2676906196604)" width="12" height="19"><text text-decoration="none" x="0" fill="#4b4b4b" font-size="10pt" font-family="lt_regular"  y="15">M</text><text text-decoration="none" x="12" fill="#4b4b4b" font-size="10pt" font-family="noto_regular"  y="15"></text></g></g><g id="O6WojB50XrD"><mask id="3f9e1" x="246" y="166" width="408" height="33" maskUnits="userSpaceOnUse"><rect x="246" y="166" width="408" height="33" fill="white" /><rect x="461.65995053304283" y="166.76526250701372" width="17" height="32" fill="black" /></mask><g mask="url(#3f9e1)"><path d="M 640,185 L 260,180" fill="none" stroke="#A8A8A8" stroke-width="2" stroke-linecap="round" stroke-linejoin="round"/></g><g transform="translate(464.65995053304283, 169.76526250701372)" width="11" height="26"><text text-decoration="none" x="0" fill="rgb(75, 75, 75)" font-size="14pt" font-family="lt_regular"  y="20">1</text><text text-decoration="none" x="11" fill="#4b4b4b" font-size="10pt" font-family="noto_regular"  y="20"></text></g></g><g id="UFOgMXUxQfa"><mask id="c364f" x="256" y="1346" width="48" height="308" maskUnits="userSpaceOnUse"><rect x="256" y="1346" width="48" height="308" fill="white" /><rect x="270" y="1484" width="20" height="32" fill="black" /></mask><g mask="url(#c364f)"><path d="M 270,1360 L 290,1640" fill="none" stroke="#7E7E7E" stroke-width="2" stroke-linecap="round" stroke-linejoin="round"/></g><g transform="translate(273, 1487)" width="14" height="26"><text text-decoration="none" x="0" fill="#4b4b4b" font-size="14pt" font-family="lt_regular"  y="20">N</text><text text-decoration="none" x="15" fill="#4b4b4b" font-size="10pt" font-family="noto_regular"  y="20"></text></g></g><g id="uw7gBYgFPc4"><g transform="translate(1170.0000000000002 160)"><rect x="0" y="0" width="129.99999999999997" height="59.999999999999964" fill="rgb(240,82,84)" stroke="#f05254" stroke-width="2" stroke-linecap="round" stroke-linejoin="round" stroke-dasharray="0 0"/></g><g transform="translate(1212.0000000000002, 180.5) rotate(0, 23, 9.5)" width="46" height="19"><text text-decoration="none" x="0.5" fill="#ffffff" font-size="10pt" font-family="lt_regular"  y="15">BLOOD</text><text text-decoration="none" x="45.5" fill="#4b4b4b" font-size="10pt" font-family="noto_regular"  y="15"></text></g></g><g id="kHjtCgHDGYI"><g transform="translate(1170.0000000000002 869.9999999999999)"><rect x="0" y="0" width="139.99999999999977" height="59.99999999999998" fill="rgb(240,82,84)" stroke="#f05254" stroke-width="2" stroke-linecap="round" stroke-linejoin="round" stroke-dasharray="0 0"/></g><g transform="translate(1205, 890.4999999999999) rotate(0, 35, 9.5)" width="70" height="19"><text text-decoration="none" x="0" fill="#ffffff" font-size="10pt" font-family="lt_regular"  y="15">RECEPIENT</text><text text-decoration="none" x="71" fill="#4b4b4b" font-size="10pt" font-family="noto_regular"  y="15"></text></g></g><g id="F0xHzZkc5lH"><g transform="translate(1190 430)"><path d="M 119.99999999999997,34.99999999999999 L 59.999999999999986,69.99999999999999 L 0,34.99999999999999 L 59.999999999999986,0 L 119.99999999999997,34.99999999999999 L 119.99999999999997,34.99999999999999 Z" fill="rgb(254,218,30)" stroke="#feda1e" stroke-width="2" stroke-linecap="round" stroke-linejoin="round" stroke-dasharray="0 0"/></g><g transform="translate(1220, 455.5) rotate(0, 30, 9.5)" width="60" height="19"><text text-decoration="none" x="0" fill="#ffffff" font-size="10pt" font-family="lt_regular"  y="15">RECEIVES</text><text text-decoration="none" x="61" fill="#4b4b4b" font-size="10pt" font-family="noto_regular"  y="15"></text></g></g><g id="SfvXbmBGQ15"><g transform="translate(1030 -50.00000000000003)"><ellipse cx="49.99999999999994" cy="24.99999999999997" rx="49.99999999999994" ry="24.99999999999997" fill="rgb(0,174,181)" stroke="#00aeb5" stroke-width="2" stroke-linecap="round" stroke-linejoin="round" stroke-dasharray="0 0"/></g><g transform="translate(1063, -34.50000000000006) rotate(0, 17, 9.5)" width="34" height="19"><text text-decoration="none" x="0" fill="rgb(97, 114, 130)" font-size="10pt" font-family="lt_regular"  y="15">COST</text><text text-decoration="none" x="34" fill="#4b4b4b" font-size="10pt" font-family="noto_regular"  y="15"></text></g></g><g id="WGEwzSQj3X6"><g transform="translate(1150 -100.00000000000001)"><ellipse cx="49.99999999999994" cy="24.99999999999997" rx="49.99999999999994" ry="24.99999999999997" fill="rgb(0,174,181)" stroke="#00aeb5" stroke-width="2" stroke-linecap="round" stroke-linejoin="round" stroke-dasharray="0 0"/></g><g transform="translate(1158, -84.50000000000004) rotate(0, 42, 9.5)" width="84" height="19"><text text-decoration="none" x="0.5" fill="rgb(97, 114, 130)" font-size="10pt" font-family="lt_regular"  y="15">BLOOD_TYPE</text><text text-decoration="none" x="83.5" fill="#4b4b4b" font-size="10pt" font-family="noto_regular"  y="15"></text></g></g><g id="KAPm7L6Cx2H"><g transform="translate(1240 -30.00000000000003)"><ellipse cx="49.99999999999994" cy="24.99999999999997" rx="49.99999999999994" ry="24.99999999999997" fill="rgb(0,174,181)" stroke="#00aeb5" stroke-width="2" stroke-linecap="round" stroke-linejoin="round" stroke-dasharray="0 0"/></g><g transform="translate(1260, -23.500000000000057) rotate(0, 30, 18.5)" width="60" height="37"><text text-decoration="none" x="7.5" fill="rgb(97, 114, 130)" font-size="10pt" font-family="lt_regular"  y="14">BLOOD&#160;</text><text text-decoration="none" x="0.5" fill="rgb(97, 114, 130)" font-size="10pt" font-family="lt_regular"  y="33">AMOUNT</text><text text-decoration="none" x="59.5" fill="#4b4b4b" font-size="10pt" font-family="noto_regular"  y="33"></text></g></g><g id="qoTs3he3zyt"><g transform="translate(1350 10)"><ellipse cx="49.99999999999994" cy="24.99999999999997" rx="49.99999999999994" ry="24.99999999999997" fill="rgb(0,174,181)" stroke="#00aeb5" stroke-width="2" stroke-linecap="round" stroke-linejoin="round" stroke-dasharray="0 0"/></g><g transform="translate(1350.5, 16.49999999999997) rotate(0, 49.5, 18.5)" width="99" height="37"><text text-decoration="none" x="0.5" fill="rgb(97, 114, 130)" font-size="10pt" font-family="lt_regular"  y="14">HAEMOGLOBIN&#160;</text><text text-decoration="none" x="18" fill="rgb(97, 114, 130)" font-size="10pt" font-family="lt_regular"  y="33">CONTENT</text><text text-decoration="none" x="81" fill="#4b4b4b" font-size="10pt" font-family="noto_regular"  y="33"></text></g></g><g id="TgTCoqYVMri"><g><path d="M 1120,-10 L 1235,160" fill="none" stroke="#00aeb5" stroke-width="2" stroke-linecap="round" stroke-linejoin="round" stroke-dasharray="0 0"/></g></g><g id="1dlQjtaYXt0"><g><path d="M 1220,-52 L 1235,160" fill="none" stroke="#00aeb5" stroke-width="2" stroke-linecap="round" stroke-linejoin="round" stroke-dasharray="0 0"/></g></g><g id="hA1AuXL31wk"><g><path d="M 1270,18 L 1235,160" fill="none" stroke="#00aeb5" stroke-width="2" stroke-linecap="round" stroke-linejoin="round" stroke-dasharray="0 0"/></g></g><g id="C0XMDZqB9Eb"><g><path d="M 1360,50 L 1235,160" fill="none" stroke="#00aeb5" stroke-width="2" stroke-linecap="round" stroke-linejoin="round" stroke-dasharray="0 0"/></g></g><g id="jTnpnptZ8uo"><g transform="translate(1400 90.00000000000003)"><ellipse cx="78.5" cy="24.999999999999993" rx="78.5" ry="24.999999999999993" fill="rgb(0,174,181)" stroke="#00aeb5" stroke-width="2" stroke-linecap="round" stroke-linejoin="round" stroke-dasharray="0 0"/></g><g transform="translate(1410, 105.50000000000001) rotate(0, 68.5, 9.5)" width="137" height="19"><text text-decoration="underline" x="1.5" fill="rgb(97, 114, 130)" font-size="10pt" font-family="lt_regular"  y="15">BLOODBAG_NUMBER</text><text text-decoration="none" x="135.5" fill="#4b4b4b" font-size="10pt" font-family="noto_regular"  y="15"></text></g></g><g id="OVnH1WqIZYd"><g><path d="M 1400,115 L 1300,190" fill="none" stroke="#A8A8A8" stroke-width="2" stroke-linecap="round" stroke-linejoin="round"/></g></g><g id="nORkUkXFNtr"><mask id="1f559" x="806" y="871" width="378" height="43" maskUnits="userSpaceOnUse"><rect x="806" y="871" width="378" height="43" fill="white" /><rect x="987" y="880" width="16" height="25" fill="black" /></mask><g mask="url(#1f559)"><path d="M 1170,900 L 820,885" fill="none" stroke="#A8A8A8" stroke-width="2" stroke-linecap="round" stroke-linejoin="round"/></g><g transform="translate(990, 883)" width="10" height="19"><text text-decoration="none" x="0" fill="#4b4b4b" font-size="10pt" font-family="lt_regular"  y="15">N</text><text text-decoration="none" x="10" fill="#4b4b4b" font-size="10pt" font-family="noto_regular"  y="15"></text></g></g><g id="pK2kr1MDG8B"><mask id="edd5b" x="1221" y="206" width="43" height="238" maskUnits="userSpaceOnUse"><rect x="1221" y="206" width="43" height="238" fill="white" /><rect x="1234.5" y="312.5" width="16" height="25" fill="black" /></mask><g mask="url(#edd5b)"><path d="M 1250,430 L 1235,220" fill="none" stroke="#A8A8A8" stroke-width="2" stroke-linecap="round" stroke-linejoin="round"/></g><g transform="translate(1237.5, 315.5)" width="10" height="19"><text text-decoration="none" x="0" fill="#4b4b4b" font-size="10pt" font-family="lt_regular"  y="15">N</text><text text-decoration="none" x="10" fill="#4b4b4b" font-size="10pt" font-family="noto_regular"  y="15"></text></g></g><g id="3TI5ukGz6pG"><mask id="62474" x="1226" y="486" width="38" height="398" maskUnits="userSpaceOnUse"><rect x="1226" y="486" width="38" height="398" fill="white" /><rect x="1236.5" y="669" width="17" height="32" fill="black" /></mask><g mask="url(#62474)"><path d="M 1250,500 L 1240,870" fill="none" stroke="#A8A8A8" stroke-width="2" stroke-linecap="round" stroke-linejoin="round"/></g><g transform="translate(1239.5, 672)" width="11" height="26"><text text-decoration="none" x="0" fill="rgb(75, 75, 75)" font-size="14pt" font-family="lt_regular"  y="20">1</text><text text-decoration="none" x="11" fill="#4b4b4b" font-size="10pt" font-family="noto_regular"  y="20"></text></g></g><g id="sKQUUb2rbzX"><mask id="8d566" x="196" y="196" width="28" height="288" maskUnits="userSpaceOnUse"><rect x="196" y="196" width="28" height="288" fill="white" /><rect x="201" y="327.5" width="18" height="25" fill="black" /></mask><g mask="url(#8d566)"><path d="M 210,470 L 210,210" fill="none" stroke="#A8A8A8" stroke-width="2" stroke-linecap="round" stroke-linejoin="round"/></g><g transform="translate(204, 330.5)" width="12" height="19"><text text-decoration="none" x="0" fill="rgb(75, 75, 75)" font-size="10pt" font-family="lt_regular"  y="15">M</text><text text-decoration="none" x="12" fill="#4b4b4b" font-size="10pt" font-family="noto_regular"  y="15"></text></g></g><g id="bpAjiNkuepW"><mask id="63692" x="746" y="171" width="438" height="33" maskUnits="userSpaceOnUse"><rect x="746" y="171" width="438" height="33" fill="white" /><rect x="957" y="174.9999999999999" width="16" height="25" fill="black" /></mask><g mask="url(#63692)"><path d="M 760,185 L 955.0000000000001,185 Q 958.0000000000001,185 965,188 Q 973.0000000000001,190 975.0000000000001,190 L 1170,190" fill="none" stroke="#A8A8A8" stroke-width="2" stroke-linecap="round" stroke-linejoin="round"/></g><g transform="translate(960, 177.9999999999999)" width="10" height="19"><text text-decoration="none" x="0" fill="#4b4b4b" font-size="10pt" font-family="lt_regular"  y="15">N</text><text text-decoration="none" x="10" fill="#4b4b4b" font-size="10pt" font-family="noto_regular"  y="15"></text></g></g><g id="sP8Qud0dceR"><g transform="translate(1340 720)"><ellipse cx="50" cy="25" rx="50" ry="25" fill="rgb(0,174,181)" stroke="#00aeb5" stroke-width="2" stroke-linecap="round" stroke-linejoin="round" stroke-dasharray="0 0"/></g><g transform="translate(1370.5, 735.5) rotate(0, 19.5, 9.5)" width="39" height="19"><text text-decoration="none" x="0" fill="#ffffff" font-size="10pt" font-family="lt_regular"  y="15">NAME</text><text text-decoration="none" x="39" fill="#4b4b4b" font-size="10pt" font-family="noto_regular"  y="15"></text></g></g><g id="kBWKD2axArc"><g transform="translate(1430 770)"><ellipse cx="50" cy="25" rx="50" ry="25" fill="rgb(0,174,181)" stroke="#00aeb5" stroke-width="2" stroke-linecap="round" stroke-linejoin="round" stroke-dasharray="0 0"/></g><g transform="translate(1457.5, 785.5) rotate(0, 22.5, 9.5)" width="45" height="19"><text text-decoration="none" x="0" fill="#ffffff" font-size="10pt" font-family="lt_regular"  y="15">REC_ID</text><text text-decoration="none" x="45" fill="#4b4b4b" font-size="10pt" font-family="noto_regular"  y="15"></text></g></g><g id="FnZl5Tp9xE8"><g transform="translate(1480 840)"><ellipse cx="50" cy="25" rx="50" ry="25" fill="rgb(0,174,181)" stroke="#00aeb5" stroke-width="2" stroke-linecap="round" stroke-linejoin="round" stroke-dasharray="0 0"/></g><g transform="translate(1488, 855.5) rotate(0, 42, 9.5)" width="84" height="19"><text text-decoration="none" x="0.5" fill="#ffffff" font-size="10pt" font-family="lt_regular"  y="15">BLOOD_TYPE</text><text text-decoration="none" x="83.5" fill="#4b4b4b" font-size="10pt" font-family="noto_regular"  y="15"></text></g></g><g id="aLsgHamIvYj"><g transform="translate(1500 910)"><ellipse cx="50" cy="25" rx="50" ry="25" fill="rgb(0,174,181)" stroke="#00aeb5" stroke-width="2" stroke-linecap="round" stroke-linejoin="round" stroke-dasharray="0 0"/></g><g transform="translate(1538, 925.5) rotate(0, 12, 9.5)" width="24" height="19"><text text-decoration="none" x="0.5" fill="#ffffff" font-size="10pt" font-family="lt_regular"  y="15">SEX</text><text text-decoration="none" x="23.5" fill="#4b4b4b" font-size="10pt" font-family="noto_regular"  y="15"></text></g></g><g id="jc3T44692yp"><g transform="translate(1490 970)"><ellipse cx="50" cy="25" rx="50" ry="25" fill="rgb(0,174,181)" stroke="#00aeb5" stroke-width="2" stroke-linecap="round" stroke-linejoin="round" stroke-dasharray="0 0"/></g><g transform="translate(1527, 985.5) rotate(0, 13, 9.5)" width="26" height="19"><text text-decoration="none" x="0" fill="#ffffff" font-size="10pt" font-family="lt_regular"  y="15">AGE</text><text text-decoration="none" x="27" fill="#4b4b4b" font-size="10pt" font-family="noto_regular"  y="15"></text></g></g><g id="WngECJX0Qds"><g transform="translate(1449.9999999999998 1030)"><ellipse cx="50" cy="25" rx="50" ry="25" fill="rgb(0,174,181)" stroke="#00aeb5" stroke-width="2" stroke-linecap="round" stroke-linejoin="round" stroke-dasharray="0 0"/></g><g transform="translate(1454.9999999999998, 1045.5) rotate(0, 45, 9.5)" width="90" height="19"><text text-decoration="none" x="0" fill="#ffffff" font-size="10pt" font-family="lt_regular"  y="15">DATE_OF_REQ</text><text text-decoration="none" x="90" fill="#4b4b4b" font-size="10pt" font-family="noto_regular"  y="15"></text></g></g><g id="PzjS43Z3bkb"><g transform="translate(1280 1060)"><ellipse cx="50" cy="25" rx="50" ry="25" fill="rgb(0,174,181)" stroke="#00aeb5" stroke-width="2" stroke-linecap="round" stroke-linejoin="round" stroke-dasharray="0 0"/></g><g transform="translate(1285, 1075.5) rotate(0, 45, 9.5)" width="90" height="19"><text text-decoration="none" x="0" fill="#ffffff" font-size="10pt" font-family="lt_regular"  y="15">DATE_OF_REQ</text><text text-decoration="none" x="90" fill="#4b4b4b" font-size="10pt" font-family="noto_regular"  y="15"></text></g></g><g id="9oTue0sd4qE"><g><path d="M 1370,768 L 1310,900" fill="none" stroke="#00aeb5" stroke-width="2" stroke-linecap="round" stroke-linejoin="round" stroke-dasharray="0 0"/></g></g><g id="ybAWrNSHlfQ"><g><path d="M 1440,810 L 1310,900" fill="none" stroke="#00aeb5" stroke-width="2" stroke-linecap="round" stroke-linejoin="round" stroke-dasharray="0 0"/></g></g><g id="OsCTIlWmkB1"><mask id="2a24c" x="1296" y="851" width="198" height="63" maskUnits="userSpaceOnUse"><rect x="1296" y="851" width="198" height="63" fill="white" />undefined</mask><g mask="url(#2a24c)"><path d="M 1480,865 L 1310,900" fill="none" stroke="#00aeb5" stroke-width="2" stroke-linecap="round" stroke-linejoin="round" stroke-dasharray="0 0"/></g>undefined</g><g id="SMKUDKboz2u"><g><path d="M 1500,935 L 1310,900" fill="none" stroke="#00aeb5" stroke-width="2" stroke-linecap="round" stroke-linejoin="round" stroke-dasharray="0 0"/></g></g><g id="ENy9PHeZKm5"><g><path d="M 1490,995 L 1310,900" fill="none" stroke="#00aeb5" stroke-width="2" stroke-linecap="round" stroke-linejoin="round" stroke-dasharray="0 0"/></g></g><g id="h0zGpqEKifH"><g><path d="M 1460,1040 L 1310,900" fill="none" stroke="#00aeb5" stroke-width="2" stroke-linecap="round" stroke-linejoin="round" stroke-dasharray="0 0"/></g></g><g id="D5K9eHiV0FN"><g><path d="M 1290,1070 L 1240,930" fill="none" stroke="#A8A8A8" stroke-width="2" stroke-linecap="round" stroke-linejoin="round"/></g></g><g id="hOEOjUDVJCN"><mask id="f7b7d" x="241" y="916" width="43" height="358" maskUnits="userSpaceOnUse"><rect x="241" y="916" width="43" height="358" fill="white" /><rect x="254" y="1079" width="17" height="32" fill="black" /></mask><g mask="url(#f7b7d)"><path d="M 270,1260 L 255,930" fill="none" stroke="#A8A8A8" stroke-width="2" stroke-linecap="round" stroke-linejoin="round"/></g><g transform="translate(257, 1082)" width="11" height="26"><text text-decoration="none" x="0" fill="#4b4b4b" font-size="14pt" font-family="lt_regular"  y="20">1</text><text text-decoration="none" x="11" fill="#4b4b4b" font-size="10pt" font-family="noto_regular"  y="20"></text></g></g></svg>